<?xml version="1.0" encoding="UTF-8"?>
<!DOCTYPE svg PUBLIC "-//W3C//DTD SVG 1.1//EN" "http://www.w3.org/Graphics/SVG/1.1/DTD/svg11.dtd">
<!-- Creator: CorelDRAW X7 -->
<svg xmlns="http://www.w3.org/2000/svg" xml:space="preserve" width="195mm" height="185mm" version="1.1" style="shape-rendering:geometricPrecision; text-rendering:geometricPrecision; image-rendering:optimizeQuality; fill-rule:evenodd; clip-rule:evenodd"
viewBox="0 0 19500 18500"
 xmlns:xlink="http://www.w3.org/1999/xlink">
 <defs>
  <style type="text/css">
   <![CDATA[
    .fil14 {fill:#005030}
    .fil8 {fill:#116A43}
    .fil36 {fill:#119551}
    .fil6 {fill:#1485C7}
    .fil40 {fill:#186640}
    .fil12 {fill:#1D6540}
    .fil30 {fill:#2C302C}
    .fil29 {fill:#2C5A3A}
    .fil34 {fill:#2D312D}
    .fil39 {fill:#30A052}
    .fil33 {fill:#34A152}
    .fil32 {fill:#373435}
    .fil1 {fill:#6CB7E3}
    .fil31 {fill:#6FAE4F}
    .fil7 {fill:#8F3236}
    .fil21 {fill:#95BB49}
    .fil18 {fill:#9ABE48}
    .fil15 {fill:#9EC247}
    .fil9 {fill:#A0C247}
    .fil20 {fill:#A23434}
    .fil13 {fill:#B23437}
    .fil16 {fill:#D43438}
    .fil5 {fill:#DB3438}
    .fil11 {fill:#DB5338}
    .fil28 {fill:#DE3338}
    .fil23 {fill:#E05838}
    .fil26 {fill:#E23338}
    .fil27 {fill:#E67138}
    .fil25 {fill:#E75747}
    .fil4 {fill:#F0AC9A}
    .fil17 {fill:#F19B34}
    .fil2 {fill:#F1C161}
    .fil22 {fill:#F5F4F4}
    .fil37 {fill:#F6D24A}
    .fil19 {fill:#F6F9FC}
    .fil24 {fill:#F8D34B}
    .fil3 {fill:#F9D27D}
    .fil10 {fill:#FBFDFE}
    .fil35 {fill:#FCE221}
    .fil38 {fill:#FCF7D9}
    .fil41 {fill:#FCFBEB}
    .fil0 {fill:#FEFEFE}
    .fil42 {fill:#FFFEF6}
    .fil43 {fill:#373435;fill-rule:nonzero}
   ]]>
  </style>
 </defs>
 <g id="Capa_x0020_1">
  <metadata id="CorelCorpID_0Corel-Layer"/>
  <g id="_523737384528">
   <polygon class="fil0" points="15464,9934 15939,9081 3220,9032 4354,10788 5598,12032 6952,13020 8062,13569 9159,13898 9805,13910 10915,13581 12379,12825 14135,11508 "/>
   <path class="fil1" d="M3293 9128c5,-37 -13,-21 24,-30l6196 28 1 -1502 -117 -19c-154,13 -500,-86 -649,-130 -107,-32 -194,-65 -244,-145 -17,-27 -89,-267 -91,-294 17,-66 99,-20 151,-127l26 -44c7,-90 96,-266 134,-344 26,-54 44,-103 76,-157 36,-61 66,-89 97,-141 -54,-40 -107,-84 -113,-185 -9,-160 115,-363 186,-425 170,-146 308,-287 570,-335 205,-37 338,50 486,114 109,46 239,214 299,310 157,249 303,801 394,1123 48,172 87,76 140,164 -23,85 -90,222 -133,291 -62,100 -126,143 -239,189 -178,72 -502,160 -714,138 -22,51 -29,1670 -4,1779l-2 -260 6120 29c88,-122 191,-415 249,-583 74,-212 127,-424 161,-655 191,-1285 -556,-2614 -1853,-3018 -478,-148 -927,-182 -1365,44 -315,162 -639,476 -705,927 -110,734 456,1234 1039,1396 292,81 428,45 704,-14 -253,-45 -522,-71 -625,-388 -39,-121 -7,-172 23,-273 -169,-22 -279,-77 -343,-200 -67,-127 -92,-295 -53,-447 40,-153 130,-266 217,-331 162,-120 236,-77 424,-45 23,-181 73,-256 225,-318 279,-113 588,-30 805,185 121,120 138,197 88,387 368,41 481,340 389,670 -43,154 -118,265 -222,327 -174,104 -275,49 -442,-5 -9,232 -108,318 -273,398 2,0 21,6 -8,34 -18,16 -42,27 -59,35 -647,323 -1574,121 -2041,-405 -460,-519 -569,-1342 -387,-2036 20,-75 80,-220 84,-277 -325,-79 -768,-116 -1121,-150 -786,-76 -1632,-62 -2413,21 -169,18 -1005,118 -1089,165 116,482 220,945 106,1454 -124,549 -597,1114 -1123,1327 -215,87 -446,125 -699,102 -185,-16 -506,-91 -630,-186 -58,-44 -77,-36 -140,-67 -53,-25 -79,-46 -114,-82 -79,-80 -112,-142 -114,-290 -177,38 -249,117 -449,-2 -242,-145 -310,-590 -172,-809 82,-130 186,-132 346,-195 -160,-421 467,-720 898,-562 153,55 179,134 223,311 39,4 138,-33 220,-28 83,5 146,38 197,75 234,173 310,517 174,772 -68,130 -160,188 -340,210 -2,97 66,135 15,280 -85,240 -307,351 -574,377 181,60 526,49 714,-1 221,-58 390,-167 528,-288 266,-233 566,-554 444,-1147 -87,-427 -388,-762 -729,-901 -426,-174 -942,-159 -1383,-22 -770,240 -1356,859 -1646,1605 -282,723 -263,1298 10,2021 54,143 164,465 235,575z"/>
   <path class="fil2" d="M6548 3353l0 0c218,67 185,103 475,96 132,-3 387,23 428,126 -166,36 -1279,249 -1336,283l1346 95c-56,62 -198,109 -277,172 -299,241 -390,184 -691,228 -142,21 -260,81 -300,171 116,-36 55,-68 326,-43 116,10 246,27 361,23 228,-7 241,-180 631,-146 -15,52 -210,170 -253,201 135,-40 380,-68 534,-89 187,-25 374,-50 556,-72 1269,-92 1350,-78 2303,-36 319,32 686,56 1001,114 56,-35 211,-88 296,-98 254,-31 394,116 619,182 86,26 279,52 349,0 -102,-58 -150,-14 -306,-133 -241,-184 -274,-219 -594,-288 -232,-50 -171,-64 -333,-123 15,-9 -10,-1 29,-13l129 -15c54,-5 110,-11 165,-16 116,-10 230,-22 342,-32 122,-11 229,-21 350,-32l244 -21c8,-1 35,-4 44,-6 55,-17 -45,20 19,-8l-1182 -292c44,-40 219,-108 278,-136 314,-149 523,-45 728,-102 93,-26 233,-85 273,-143 -480,69 -419,-43 -716,-43 -294,0 -388,113 -717,6 28,-44 103,-64 146,-83 50,-21 98,-43 152,-67 110,-48 206,-91 314,-139l468 -206c31,-14 52,-25 81,-37l78 -43 -1350 157c32,-53 193,-196 243,-236 406,-331 823,-281 885,-581 -145,78 -45,91 -320,149 -434,92 -244,-46 -694,238 -66,41 -264,143 -350,95 -10,-43 485,-543 539,-605 41,-47 66,-80 111,-123 39,-35 198,-208 219,-247 -124,34 -647,367 -816,466 -77,46 -197,125 -274,155 38,-129 56,-107 102,-302 85,-363 520,-536 432,-770l-96 122c-111,124 -315,171 -409,291 -85,109 -187,302 -298,389 -38,29 -105,53 -137,83 -7,-100 264,-1047 304,-1236 -53,54 -142,192 -189,263 -63,94 -130,183 -192,274 -61,91 -324,487 -383,537 -10,-123 3,-221 -15,-356 -17,-123 -16,-235 27,-345 61,-156 186,-473 27,-597 17,361 -119,300 -248,584 -92,204 -80,481 -231,623 -6,-8 -6,-2 -14,-23l-178 -1209c-11,-43 5,-6 -15,-42l-175 958c-10,52 -19,101 -28,152 -9,50 -20,127 -44,156 -72,-224 -209,-287 -264,-579 -22,-115 -4,-297 -34,-394 -28,-89 -130,-204 -199,-218 197,243 -34,457 -15,651 7,71 28,100 51,156 60,144 97,386 37,522 -93,-34 -702,-971 -819,-1063 13,85 63,220 87,302 31,106 61,203 93,311 52,180 148,445 175,621l-67 -56c-144,-135 -345,-211 -487,-355 -152,-155 -187,-474 -464,-498l14 14c79,79 136,140 158,258 26,131 8,286 83,370 143,158 354,258 409,499 -197,-71 -1094,-674 -1253,-709 158,190 805,820 881,945 -68,-7 -96,-24 -154,-34 -66,-12 -107,-4 -173,-21 -92,-24 -207,-51 -293,-84 -72,-28 -108,-64 -161,-111 -94,-85 -180,-145 -334,-138 46,32 97,39 138,87 113,132 141,330 300,400 257,114 419,65 616,324l-1241 -160c30,48 658,333 729,367 75,37 178,94 245,118 -14,10 2,4 -28,14 -47,15 -93,9 -141,11 -177,10 -267,90 -542,52 -187,-25 -288,-129 -487,-68l-142 72c141,1 155,-18 281,32 54,21 177,80 208,107z"/>
   <path class="fil3" d="M9307 10562c25,-35 131,-102 177,-117 35,19 60,36 80,78 -41,111 -185,143 -257,39zm206 -1436l0 0c-10,203 -1,426 -1,632 0,45 13,571 -15,608 -29,-60 -18,-68 -64,-113 -155,-31 -410,112 -541,168 -365,158 -208,110 -554,145 -211,22 -403,61 -602,101 -634,124 -1821,136 -2586,224 -202,24 -426,81 -624,68 63,122 944,994 1087,1072 184,14 700,-174 886,-233 284,-92 597,-148 891,-235 70,-21 138,-50 205,-68 79,-21 151,-38 228,-56 94,-23 165,-10 258,-24 174,-27 633,-166 696,-80 28,38 4,45 79,62 137,32 175,-90 317,62 27,-14 3,0 24,-18 127,-108 345,-19 265,136 -20,37 -2,-11 -20,38 109,-10 128,66 77,147 -78,21 -123,-7 -128,-77 -59,59 -104,101 -63,211l47 17c54,-37 56,18 141,-75 44,-47 57,-70 82,-129l28 61c9,19 11,24 25,38 19,17 70,38 94,48 89,36 136,47 187,-24 -67,-157 -304,-260 -366,-350l31 -54 148 144c170,146 266,437 475,198 -21,-66 -253,-288 -331,-369 -68,-70 -96,-77 -117,-102l45 -32c52,104 217,233 314,320 101,89 103,119 147,164 73,74 165,23 208,-49 27,-101 -354,-503 -469,-596 40,-45 23,-1 30,-35 2,-5 5,-5 7,-8 52,50 84,117 135,168l137 148c151,162 188,297 261,324 -13,-21 -22,-30 -32,-65l97 -58c29,-2 5,-3 21,9 55,57 3,78 -22,115l-52 0 41 24c33,-21 59,-47 75,-77 -3,-6 -7,-90 -23,-133 -34,-89 -128,-261 -178,-327 -126,-162 -280,-308 -427,-441 -53,-48 -268,-154 -371,-112 -84,35 -144,92 -257,90 -108,-1 -177,-48 -191,-142 35,66 29,83 139,85 62,1 139,-17 185,-41 57,-30 88,-57 122,-98 32,-38 63,-87 107,-108 49,23 76,58 137,80 86,32 98,0 169,-16 -9,72 -73,80 -40,171 87,21 99,-28 166,-63 -26,85 -74,74 -81,150 192,109 68,69 105,138 8,15 129,133 153,149 173,-1 190,-54 324,-79l-49 51c-72,45 -143,50 -227,71 13,73 98,151 135,223 35,67 77,171 115,218 45,-42 115,-108 170,-138 -20,94 -120,126 -159,234 88,4 242,47 335,66 437,88 661,89 1052,153 174,29 1043,240 1226,330 45,23 14,5 32,22 45,-25 114,-84 138,-115 -51,-27 -806,-159 -968,-195 -105,-24 -227,-31 -336,-54 -436,-92 -822,-104 -1182,-176 -65,-13 -125,-10 -197,-20 14,-57 57,-99 92,-146 53,-74 33,-52 49,-116 9,-35 -9,20 6,-21 9,-26 4,-16 16,-32 60,157 91,145 170,166l10 -35c53,2 118,15 168,21 64,8 111,11 180,16 242,17 2319,252 2400,235 73,-29 729,-715 782,-819 -154,15 -486,-27 -667,-32 -239,-7 -464,10 -700,9 -882,0 -1192,-18 -2031,-95 -211,-19 -371,15 -456,-71 -102,-104 -202,-135 -315,-216 -399,-287 -157,-187 -489,-183 -64,1 -221,-49 -282,-67 -231,14 -109,45 -255,122l-3 -2736 -1 1502z"/>
   <path class="fil4" d="M4811 5484c33,88 53,158 95,249 20,45 49,136 88,159 31,18 15,12 45,-12l3 63 36 -51 6 74 54 -83 -20 100 42 -49c-1,0 -3,39 17,56l9 6c0,0 3,3 4,4 6,8 6,20 6,21l53 -39 -29 67 64 -30 -35 56 96 -30c-25,11 -36,25 -45,53 198,0 501,-44 563,-40 -66,2 -388,99 -486,123l-75 47 86 23 -93 15 50 37 -61 1c30,23 33,21 72,32 -10,6 -8,9 -31,11 -10,1 -29,0 -39,-1l43 48 -59 7 -29 17 48 45c-1,0 -6,-2 -7,1 -13,39 -3,-15 -45,14l37 51 -66 -35c11,47 15,47 33,82l-80 -72 26 77c-19,-11 -52,-39 -60,-55 2,26 9,41 16,69 12,43 -8,34 -8,55l32 233c-45,-77 -29,-97 -134,-268 -9,-14 -18,-40 -24,-53l-7 87 -32 -84 -25 112 -13 -105 -21 55 -32 -53 -28 81c-2,-10 -3,-31 -4,-35l-12 -34c-1,-3 -3,-8 -5,-11l-15 -38 -55 64 -15 -42c0,-1 -3,-11 -4,-8l-19 -22c-2,-1 -5,-3 -7,-3 -10,-2 10,-6 -13,3 -3,1 -28,24 -41,31 26,-34 22,-21 38,-73 -42,13 -33,13 -70,29l57 -67 -49 -10 35 -32 -65 12 30 -39c2,-3 5,-6 8,-9l-90 9c60,-36 30,-13 19,-35l-398 49c3,-4 8,-12 10,-9l415 -129c-24,-39 -6,-11 -55,-35l90 -2 -35 -35c-2,-3 -6,-7 -9,-10l63 0c-1,-3 -9,28 -18,-16l1 -10c12,-37 4,7 10,-14 4,-14 10,-3 -13,-25 -16,-16 -23,-19 -35,-32l81 26c-21,-30 -42,-57 -62,-75l94 45 -59 -83c38,22 17,15 67,30 -12,-40 -13,-33 -26,-68l71 63 -25 -80 51 46 -1 -61c35,24 24,34 51,-11 28,-47 1,9 8,-17 5,-17 3,-103 0,-135 -6,-85 -39,-191 -39,-273zm-426 412l0 0c-631,-7 -528,791 -188,946 186,85 301,-3 428,-68 -29,439 342,522 623,453 206,-50 405,-201 421,-400 10,-129 -45,-138 -52,-238 175,-3 288,-46 358,-173 142,-255 64,-584 -166,-745 -172,-120 -258,-36 -417,-8 -17,-195 -57,-272 -200,-334 -393,-169 -844,122 -876,360 -13,95 41,148 69,207z"/>
   <path class="fil4" d="M14149 5842c12,15 17,48 59,-1l26 -42c47,-95 119,-263 143,-365 0,86 -61,279 -44,394l16 37c14,29 -15,1 20,40l16 38c38,-19 22,-23 59,-48l-23 80 71 -63 -27 69c49,-15 30,-11 65,-30l-61 84 82 -36c-20,33 -31,36 -52,68l96 -36 -74 56 35 8 -24 42 61 1c-3,3 -6,6 -8,7l-35 35 86 4c-69,24 -30,-5 -52,37 6,1 392,106 426,129 -141,-8 -274,-47 -408,-43 -5,17 18,29 20,33l-78 -9c2,4 5,8 7,10 2,3 5,7 7,10l22 27c-45,-7 -43,-15 -69,-3 37,21 44,37 74,60l-92 -30c30,23 30,45 63,72l-90 -44c17,24 33,52 53,82l-60 -49 -14 53 -36 -36 15 66c-3,-2 -7,-5 -9,-7l-32 41 -46 -45 2 86 -35 -94c-21,36 -8,42 -18,88l-29 -88 -23 83 -21 -80c-20,41 -15,76 -23,55 -1,-2 -4,7 -6,10l-10 -74c-26,49 -12,42 -47,88 -27,35 -28,44 -46,84l-58 136c-15,25 -8,12 -19,25l-16 17c11,-71 30,-134 46,-200 21,-85 8,-104 22,-186l-37 42c-16,-27 5,-48 1,-57l-56 34 27 -67 -85 59 59 -73 -114 -17 73 -68 -116 24c22,2 60,-31 92,-46 -29,-17 -18,-10 -65,-10l48 -41 -90 -4 102 -36 -98 -16 86 -19c-22,-18 -29,-14 -56,-28 -25,-13 -15,-9 -25,-15 -111,-62 -308,-59 -408,-126 166,11 322,30 483,36 21,-38 -43,-32 59,-25l-33 -52 66 27 -57 -92c2,12 6,15 34,36 20,14 29,19 49,29l-35 -92c11,27 44,49 68,74l-12 -64c3,2 7,5 10,7l24 19c16,14 3,5 19,20l-20 -102 52 84c20,-68 15,-41 45,-25l3 -62zm-356 -221l0 0c-82,-2 -225,-117 -413,11 -241,163 -305,487 -169,748 63,121 190,161 358,172 -7,104 -134,188 21,420 151,225 579,312 808,158 134,-91 168,-177 163,-393 61,22 218,160 422,71 258,-114 347,-547 203,-785 -61,-102 -222,-152 -385,-169 88,-138 105,-231 -13,-366 -80,-91 -179,-168 -329,-214 -147,-45 -315,-44 -455,11 -149,58 -195,150 -211,336z"/>
   <path class="fil5" d="M9029 6114c-224,32 -88,-252 -34,-320 92,-117 141,-217 259,-251 -9,62 -115,215 -150,269 -139,216 -11,150 -75,302zm134 15l0 0c15,12 33,-1 0,78 -152,357 -97,173 -163,578 394,-75 493,58 758,7 328,-65 461,4 769,46 -19,-92 -48,-179 -71,-266 -26,-99 -29,-195 -44,-295 -28,-196 -120,-312 -196,-466 -34,-70 -76,-149 -110,-213 -69,-129 -32,-106 -165,-173 -95,-47 -122,-65 -238,-86 -176,-33 -126,-28 -272,36 -242,106 -207,69 -412,248 -69,60 -247,289 -193,438 106,299 480,-96 603,-169 44,-26 191,-81 247,-83 -22,101 -107,101 -256,152 -83,28 -107,89 -181,128l-76 40z"/>
   <path class="fil5" d="M8564 6909c-52,107 -134,61 -151,127 2,27 74,267 91,294 50,80 137,113 244,145 149,44 495,143 649,130l119 7 -1 -406 245 -3c18,107 -31,327 13,404 212,22 536,-66 714,-138 113,-46 177,-89 239,-189 43,-69 110,-206 133,-291 -40,8 -54,-21 -112,-39 -45,-14 -85,-22 -131,-36 -116,-33 -150,-38 -277,-49 -222,-17 -384,-45 -618,-30 -342,22 -386,-37 -608,-21 -186,13 -361,82 -536,125 -19,-19 -22,30 -13,-30z"/>
   <path class="fil6" d="M7654 14332c43,-40 116,-70 184,-103 148,-72 568,51 712,93 319,93 636,146 999,145 825,-2 1308,-636 1771,-268 -352,-13 -601,113 -890,226 -138,54 -475,189 -625,199 -911,61 -823,-52 -1649,-244 -180,-42 -314,-41 -502,-48zm-281 110l0 0c51,-36 201,-28 256,-23 133,13 630,89 697,155 81,-2 442,123 555,155 266,75 696,96 969,23 93,-24 203,-45 289,-75 91,-32 470,-182 526,-182l89 -44c307,-109 413,-149 751,-102 82,11 28,19 55,-15l-205 -147c-54,-37 -166,-99 -222,-128 -399,-211 -694,28 -1064,172 -561,217 -1293,-14 -1822,-110 -244,-44 -382,57 -546,153 -75,43 -148,88 -237,114 -106,30 -222,15 -221,130 52,-32 36,-81 130,-76zm2299 1273l0 0c38,47 27,289 13,362l-215 6c-82,-5 -79,-9 -107,-200l-115 -449c149,5 133,17 291,5l105 8c20,59 34,201 28,268zm1196 -1207l0 0c18,123 -94,392 -134,519 -24,79 -22,110 -98,134 -175,56 -293,12 -504,158 -71,50 -25,55 -142,90l-38 -63c-101,8 -157,57 -260,65 -227,16 -404,14 -608,-39 -44,-11 -94,-14 -133,-26 -77,-22 -47,-33 -126,-12 -102,27 -101,-53 -208,-93 -37,-14 -18,-1 -50,-28 0,0 -39,-35 -41,-37 -49,-52 -262,-414 -228,-585l-329 -63c-40,75 -20,103 35,146 219,174 168,264 251,437 83,173 330,308 595,319 16,26 19,29 34,52 -190,15 -636,-19 -715,-143 -50,-77 -106,-198 -154,-287 -63,-115 -168,-212 -185,-246 -60,-13 -90,-71 -129,-126 -39,-56 -55,-105 -43,-191 -22,-34 -1,-18 -45,-32 -2,0 -42,-3 -46,-3 -40,-1 -80,0 -119,2 -63,18 -124,34 -146,92 -77,200 227,199 329,394 22,38 44,86 74,135 48,80 86,104 51,130 42,28 51,33 81,88 162,295 180,216 585,228 75,2 187,51 234,91 44,-55 194,-37 268,-22 50,101 75,135 67,273 -32,20 -62,48 -95,72 -44,31 -86,35 -118,59 43,-2 18,-1 33,9 -33,18 -31,25 -61,44l-169 103c-145,93 -309,218 -367,385 -107,306 44,290 -70,656 -83,263 -370,343 -482,636 91,-26 65,-56 187,-77 34,-6 81,-19 111,-31 56,-22 33,-8 60,-69 50,-118 136,-274 221,-316 45,-132 147,-189 118,-436 -13,-105 -59,-78 -19,-211 79,-265 166,-340 352,-491 102,-83 169,-207 300,-258 -3,74 -10,46 -50,94 -173,210 -347,310 -423,615 -47,189 35,352 -4,526 -13,61 -38,189 -70,229l-112 107c-1,0 -21,18 -22,19 -23,20 -2,3 -25,19 -9,51 -99,161 -129,207l-34 -50c40,159 110,313 169,452l14 0c-4,-85 3,-82 20,-148 14,-59 1,-99 21,-160 68,-208 258,-378 282,-431 23,-48 23,-99 25,-156 3,-83 21,-88 33,-147 17,-79 -10,-232 -43,-295 -48,-92 -26,-50 -10,-133 6,-31 1,-123 1,-164 1,-80 0,-84 59,-116 92,-49 133,-82 213,-150 45,-36 59,-40 85,-92 120,11 118,-19 233,-43 65,-13 206,-13 285,-16 431,-14 424,-14 620,251 187,255 170,99 341,255 273,249 195,510 287,607 19,21 155,101 187,111 82,24 179,-14 275,-3 358,41 525,493 669,512 23,-74 -21,-315 -65,-350 -42,-34 -87,-46 -134,-87 -45,-38 -119,-51 -133,-71 -95,-24 -175,-78 -267,-112 -218,-81 -407,30 -411,-319 -2,-110 -68,-179 -125,-234 -116,-113 -228,-239 -410,-316 -102,-43 -93,-50 -200,-162 -34,-35 -55,-58 -90,-92 -52,-51 -41,-54 -42,-147 34,10 187,79 232,126 311,324 314,173 593,482 160,177 200,453 393,489 94,17 155,-100 253,31 20,26 16,24 42,49l46 52c20,3 9,1 34,11l310 121c98,20 94,-28 145,-76 45,-42 95,-61 141,-98 -273,0 -191,18 -511,-97 -101,-36 -122,-68 -203,-108 -62,-32 -37,-36 -205,-119 -91,-45 -355,-391 -471,-488 -55,-47 -121,-85 -177,-135 -57,-20 -242,-147 -277,-185 -77,-34 -178,-114 -233,-134l15 -10c-74,-21 -55,-1 -123,-49l-6 -130 45 -24c-66,5 -21,3 -38,-12 112,-39 447,-262 562,-116 117,-26 305,128 457,57 138,-65 213,-158 276,-296 26,-61 40,-163 92,-202 -76,-69 148,-401 192,-436 26,-162 -4,-256 -168,-252l-105 217c-32,63 -86,146 -113,211 -54,131 -95,422 -159,502 -111,140 -355,55 -530,40 -121,-10 -170,14 -269,55 -38,15 -82,32 -121,47 -20,8 -38,16 -57,23l-57 5c62,-34 131,-62 195,-88 86,-35 112,-83 182,-105 162,-52 344,-12 450,-132 89,-100 195,-444 261,-608 39,-99 77,-115 114,-180 -78,-6 -238,24 -297,50 -30,14 -31,24 -49,59 -1,3 -3,7 -5,11z"/>
   <path class="fil7" d="M9397 7605l117 19 3 2736c146,-77 24,-108 255,-122l-3 -852c-25,-109 -18,-1728 4,-1779 -44,-77 5,-297 -13,-404l-245 3 1 406 -119 -7z"/>
   <path class="fil8" d="M17360 10108c-29,28 -21,34 -30,74l-177 430c-98,228 -242,348 -192,475l181 -33c41,-31 74,-34 108,-59l20 -18c-33,-11 -76,-15 -108,-20 -47,-6 -83,-5 -117,-38 114,-55 -20,-20 265,-136 643,-263 282,-154 722,-510 34,-27 71,-69 106,-89 44,-25 102,-37 147,-59 87,-40 149,-142 201,-214 32,-43 58,-80 91,-117 35,-38 62,-60 98,-109 30,-41 53,-78 83,-124 18,-29 56,-76 57,-114l-3 -15 -282 185c-33,26 -34,12 -63,68 -112,217 -74,159 -220,233 -131,66 -209,366 -839,679 -59,29 -148,88 -210,51 -5,-51 112,-176 147,-220 158,-198 387,-344 573,-515 135,-124 230,-249 372,-367 82,-69 342,-321 391,-333 36,-71 72,-182 84,-266 -89,50 -91,137 -384,276 -244,116 -165,257 -372,271 -133,9 -186,-22 -227,102 -67,199 -221,365 -375,508 -4,4 -16,14 -20,15 -38,9 3,36 -27,-11z"/>
   <path class="fil9" d="M17560 11599c3,10 20,-4 -21,33 -13,13 -38,30 -52,40 -39,29 -68,52 -105,76 -273,174 -250,91 -493,208 -88,42 -121,86 -223,127 -182,71 -329,98 -511,188 -158,77 -302,164 -490,215 -29,36 -92,71 -134,107 -40,34 -83,81 -126,120 -47,44 -234,202 -233,251 86,-23 150,-68 238,-88 75,-17 207,-24 263,-51 51,-24 125,-101 183,-127 225,-100 478,-47 755,-204 111,-63 89,-63 233,-75 122,-10 125,-84 211,-122 17,-41 112,-130 152,-166 126,-117 250,-328 354,-476 18,-26 55,-61 69,-91l-70 35z"/>
   <path class="fil8" d="M788 8964c92,50 280,255 369,337 139,127 270,298 342,357 131,108 434,375 537,513 49,66 131,153 126,207 -59,30 -142,-26 -199,-56 -560,-291 -663,-593 -766,-659 -93,-60 -88,-2 -159,-126 -54,-95 -46,-125 -102,-170 -91,-50 -182,-142 -277,-187 -14,34 101,205 129,244 60,84 111,127 171,217 244,362 191,135 428,363 75,71 129,134 197,205 51,56 120,145 206,182 170,74 388,142 516,261l-58 20c-42,8 -124,12 -154,32 98,69 148,60 182,79l116 28c11,-122 -35,-186 -84,-264 -79,-126 -195,-430 -255,-587 -27,-72 7,-76 -46,-129 9,70 6,18 -11,33 -188,-219 -282,-237 -379,-531 -63,-194 -268,19 -391,-217 -44,-85 -76,-98 -168,-144 -124,-62 -169,-97 -267,-186l-81 -81c8,85 43,198 78,259z"/>
   <path class="fil9" d="M17335 12348c29,8 16,0 31,16l-510 206c-176,78 -273,170 -501,199 -173,21 -458,43 -609,92 -175,57 -352,133 -524,177 -182,56 -135,46 -257,156 8,4 -9,31 87,-17 36,-17 57,-29 88,-42 60,-26 132,-53 200,-62 65,-8 367,23 407,120l-19 9c-78,26 -262,19 -333,45 -36,13 -15,4 -31,15 129,4 244,-11 378,-3 311,18 306,-14 476,-108l429 -152c134,-27 197,12 303,-75 51,-42 117,-154 281,-302 65,-59 242,-240 280,-319l-176 45z"/>
   <path class="fil9" d="M2294 12001c79,18 78,101 182,115 150,21 106,0 227,72 171,101 239,97 457,138 356,66 265,100 411,185 60,35 169,37 246,54 78,17 146,60 213,86 21,-15 26,29 13,-28 -68,-75 -147,-138 -221,-220 -40,-45 -65,-70 -109,-111 -41,-39 -93,-71 -120,-107 -182,-53 -310,-136 -464,-216 -165,-86 -299,-113 -476,-185 -97,-40 -126,-85 -211,-126 -322,-155 -169,10 -551,-278 -27,-20 -70,-42 -64,-67l-62 -32c135,170 184,302 382,543 45,54 127,114 147,177z"/>
   <path class="fil9" d="M16738 6906c-2,-8 -10,-49 -10,-55 3,-37 0,-20 14,-42 13,39 34,83 48,124 54,149 13,109 134,372 266,584 337,410 687,1332l0 -853c-8,-87 -15,-173 -23,-260 -56,-617 -193,-504 -469,-696 -49,65 137,363 152,443 -44,-48 -74,-117 -117,-170 -70,-86 -176,-106 -309,-235 -53,-51 -80,-85 -149,-128l42 168z"/>
   <path class="fil9" d="M13208 14478c-119,5 -269,33 -361,84 -88,49 -150,147 -225,216 51,25 453,67 542,65 196,-4 406,12 591,-29 240,-39 444,-218 623,-309 277,-176 206,-65 508,-146 83,-23 248,-172 332,-239l48 -48c-96,21 -254,152 -457,168 -702,57 -742,177 -1027,220 -103,16 -189,-10 -294,-6 -92,4 -187,15 -280,24z"/>
   <path class="fil9" d="M3889 12948c-79,-54 -288,-24 -377,-66 30,-97 310,-127 359,-123 151,10 249,107 373,135 -20,40 -45,28 -41,48l35 9c13,-18 -9,-4 29,-30 -46,-45 -61,-91 -107,-130 -38,-31 -111,-46 -162,-67 -168,-45 -329,-119 -500,-178 -134,-46 -424,-66 -585,-89 -174,-25 -322,-141 -467,-207l-415 -181c-34,-18 -26,-11 -47,-34l-111 -32c8,23 52,82 69,103 83,107 177,189 274,284 66,65 101,146 166,209 95,94 148,59 290,88 191,38 376,142 524,226 65,37 570,31 693,35z"/>
   <path class="fil9" d="M2252 6620c-35,-7 -302,172 -333,209 -75,89 -104,316 -116,455 -31,333 -49,775 -26,1111l184 -473c109,-270 311,-473 470,-865 32,-77 72,-165 90,-247 19,-88 43,-193 98,-239l3 -30c-71,34 -89,75 -138,127 -33,35 -97,80 -147,113 -76,50 -88,38 -141,118 -33,48 -61,113 -98,151 13,-92 125,-243 154,-430z"/>
   <path class="fil9" d="M5022 14344c51,-17 126,48 170,71 63,33 119,51 195,64 165,30 358,19 535,22 180,3 328,-43 504,-57 -57,-30 -139,-168 -216,-217 -75,-49 -240,-80 -342,-85 -91,-8 -180,-22 -270,-24 -104,-3 -174,23 -278,3 -178,-34 -278,-106 -444,-140 -174,-36 -331,-54 -509,-74 -177,-21 -337,-149 -416,-169 49,60 168,145 229,200 221,202 389,31 605,237 126,120 214,132 237,169z"/>
   <path class="fil10" d="M7654 14332c188,7 322,6 502,48 826,192 738,305 1649,244 150,-10 487,-145 625,-199 289,-113 538,-239 890,-226 -463,-368 -946,266 -1771,268 -363,1 -680,-52 -999,-145 -144,-42 -564,-165 -712,-93 -68,33 -141,63 -184,103z"/>
   <path class="fil9" d="M13085 12703c-19,79 -75,188 -109,277 -38,101 -50,201 -93,295 -39,87 -245,294 -345,420 -107,135 -41,162 -96,292 -64,153 -318,701 -341,810l296 -117c221,-95 177,-87 232,-246 137,-398 190,-650 387,-1020l21 -35c13,-51 42,-96 64,-145 29,-64 24,-97 39,-169 -5,-83 -22,-138 -28,-209 -6,-75 10,-131 10,-203 -23,27 -19,14 -37,50z"/>
   <path class="fil9" d="M18255 6412c19,10 36,-35 5,120 -9,43 -14,81 -23,125 -64,351 -103,903 -353,1096 -35,27 -99,107 -117,168 -24,83 8,204 -5,293l13 149c128,-48 263,-201 342,-312 91,-127 172,-246 247,-401 107,-220 20,-375 93,-556 95,-237 -102,-401 -74,-486l-88 -229c-45,15 -15,-8 -40,33z"/>
   <path class="fil9" d="M13374 13101c-51,95 -91,186 -139,280 -43,87 -97,175 -143,259 -40,75 -257,493 -292,525 -44,138 -167,275 -210,407 254,-40 407,-222 544,-281 70,-30 45,-29 86,-49 -6,-63 90,-274 107,-380 22,-134 61,-273 128,-352 222,-262 148,-485 176,-564 27,-77 48,-65 72,-168 -72,24 -277,258 -329,323z"/>
   <path class="fil9" d="M5935 12754c71,346 208,468 278,705l153 508c100,298 37,245 178,328 42,24 59,36 110,61l173 73c42,17 30,8 50,35l27 -13c-61,-172 -135,-340 -204,-508 -34,-83 -71,-173 -106,-256 -90,-212 77,-109 -232,-481 -46,-55 -133,-139 -164,-198 -55,-104 -56,-159 -89,-275 -27,-92 -72,-178 -96,-264l-46 -31c-13,88 -24,223 -32,316z"/>
   <path class="fil9" d="M16647 10612c56,41 83,317 87,413 33,-23 70,-88 77,-123 4,-179 38,-358 36,-535 -2,-185 11,-345 31,-528 28,-263 -24,-263 -64,-479 -15,-81 -2,-186 -14,-267 -10,-68 -47,-175 -38,-231 -37,-14 -30,-37 -57,-117 -7,-20 -14,-44 -23,-69l-35 -62c-21,550 -193,280 -23,1026 48,207 -102,312 -93,481 5,105 47,165 57,246 6,48 -6,104 8,146 9,28 36,63 51,99z"/>
   <path class="fil9" d="M1021 6472c21,18 32,-8 -14,105 -87,219 -40,177 5,354 63,254 -107,327 304,902 58,81 213,276 317,293l13 -427c-41,-44 -64,-119 -103,-158 -46,-46 -79,-61 -117,-130 -155,-284 -190,-769 -254,-1107 -20,-109 -9,-88 7,-99l-39 -30c-28,123 -58,192 -119,297z"/>
   <path class="fil8" d="M12009 14127c40,66 -50,270 26,545 33,116 7,63 67,148 67,-9 262,-97 295,-140l-296 117c23,-109 277,-657 341,-810 55,-130 -11,-157 96,-292 100,-126 306,-333 345,-420 43,-94 55,-194 93,-295 34,-89 90,-198 109,-277 -30,31 -48,58 -77,88 -146,148 -53,142 -238,228 -95,45 -113,88 -174,138 -180,145 -126,397 -314,619 -85,100 -254,251 -273,351z"/>
   <path class="fil11" d="M13522 12069c60,-36 77,-61 128,-100 48,-37 73,-54 109,-103 -343,-22 -580,-94 -1010,-108 -326,-10 -1003,-215 -1269,-239 -88,-7 -224,-20 -308,-44 -79,-21 -110,-9 -170,-166 -12,16 -7,6 -16,32 -15,41 3,-14 -6,21 -16,64 4,42 -49,116 -35,47 -78,89 -92,146 72,10 132,7 197,20 360,72 746,84 1182,176 109,23 231,30 336,54 162,36 917,168 968,195z"/>
   <path class="fil12" d="M16427 4824l11 -29c40,108 53,112 79,248 21,113 65,158 88,235 33,51 101,87 133,150 114,77 87,26 165,161 52,90 65,125 127,197 86,98 222,229 264,389 17,19 -13,18 22,14 11,-36 24,-65 35,-91 -139,-116 -72,-495 -246,-854 -47,-97 -108,-174 -192,-352 -52,-109 -151,-272 -179,-385l-30 -24 -42 60 132 273c33,87 87,204 102,287 -112,-66 -268,-267 -366,-385 -59,-73 -112,-144 -174,-202 -49,-47 -148,-130 -179,-192l-30 -10c27,111 7,144 132,253 37,32 62,57 90,106 28,49 33,103 58,151z"/>
   <path class="fil13" d="M8897 6223c36,-7 61,-17 95,-27 34,25 11,-11 18,27 18,-52 107,-56 153,-94l76 -40c74,-39 98,-100 181,-128 149,-51 234,-51 256,-152 -56,2 -203,57 -247,83 -123,73 -497,468 -603,169 -54,-149 124,-378 193,-438 205,-179 170,-142 412,-248 146,-64 96,-69 272,-36 116,21 143,39 238,86 133,67 96,44 165,173 34,64 76,143 110,213 76,154 168,270 196,466 15,100 18,196 44,295 23,87 52,174 71,266 -308,-42 -441,-111 -769,-46 -265,51 -364,-82 -758,-7 -56,-6 -152,17 -205,38 -29,10 -66,21 -100,33 -5,1 -49,16 -50,16 -75,17 -25,25 -55,-7l-26 44c-9,60 -6,11 13,30 175,-43 350,-112 536,-125 222,-16 266,43 608,21 234,-15 396,13 618,30 127,11 161,16 277,49 46,14 86,22 131,36 58,18 72,47 112,39 -53,-88 -92,8 -140,-164 -91,-322 -237,-874 -394,-1123 -60,-96 -190,-264 -299,-310 -148,-64 -281,-151 -486,-114 -262,48 -400,189 -570,335 -71,62 -195,265 -186,425 6,101 59,145 113,185z"/>
   <path class="fil14" d="M17119 6828c276,192 413,79 469,696 8,87 15,173 23,260l0 853c-33,162 -10,187 -21,264l-7 24 -6 43c31,44 17,7 52,46 38,12 43,19 61,46l30 0c32,-158 20,-189 8,-342 -21,-252 295,-234 556,-371 87,-46 114,-136 301,-268 164,-116 190,-255 360,-392 75,-60 123,-106 159,-220 -63,18 -134,73 -191,110 -52,35 -142,107 -181,119 -112,226 -145,370 -325,489 -224,148 -230,210 -569,237 -79,41 -82,-147 -76,-208 -15,-142 -11,-318 -18,-466 -2,-63 -14,-174 -7,-232 10,-75 64,-131 38,-160l-46 103c-41,-105 -91,-442 -110,-571l-13 -25 -129 -30 4 101c-82,-29 -175,-86 -257,-123 -132,-61 -112,-57 -170,-187 -17,23 -14,-21 -7,41l33 163c8,3 18,-9 39,0z"/>
   <path class="fil14" d="M14953 3867c-39,53 -56,67 -122,75 -146,25 -362,54 -527,61 73,42 509,36 607,9 44,-12 112,-50 149,-40 65,19 64,73 304,125 180,40 55,40 231,188 -219,-76 -249,-69 -501,-48 -214,18 -308,-50 -482,-102 -356,-106 -264,24 -702,94 -64,10 -199,8 -243,47 67,17 137,43 211,50 103,10 132,-28 224,-36 73,-61 470,-64 581,-44 118,21 150,31 239,84 81,49 126,103 232,80 83,-6 138,-65 238,-64 167,2 444,231 591,336 99,71 440,315 506,401 63,82 -28,54 116,195 -23,-77 -67,-122 -88,-235 -26,-136 -39,-140 -79,-248l-11 29c-1,43 5,28 -11,58 -42,-18 -228,-175 -319,-237 -90,-62 -420,-276 -471,-358 -93,-147 -117,-248 -238,-332 -41,-28 -150,-87 -174,-114 -148,-5 -286,-122 -393,-146 -4,14 -22,-5 39,34l196 124 -103 14z"/>
   <path class="fil9" d="M18812 9432l3 15c-1,38 -39,85 -57,114 -30,46 -53,83 -83,124 -36,49 -63,71 -98,109 -33,37 -59,74 -91,117 -52,72 -114,174 -201,214 -45,22 -103,34 -147,59 -35,20 -72,62 -106,89 -440,356 -79,247 -722,510 -285,116 -151,81 -265,136 34,33 70,32 117,38 32,5 75,9 108,20l-20 18c-34,25 -67,28 -108,59 371,-48 365,-30 600,-229 78,-66 122,-127 224,-190 217,-136 330,-159 485,-357 63,-82 87,-184 157,-271 61,-77 135,-138 164,-252 23,-91 71,-261 79,-346l-39 23z"/>
   <path class="fil8" d="M16222 9939c1,2 20,212 21,234 8,82 25,147 81,196 47,42 99,77 155,117 63,46 104,84 168,126 -15,-36 -42,-71 -51,-99 -14,-42 -2,-98 -8,-146 -10,-81 -52,-141 -57,-246 -9,-169 141,-274 93,-481 -170,-746 2,-476 23,-1026l-28 -52c-33,100 -84,242 -139,326 -38,58 -151,207 -173,282 -32,109 60,241 18,407 -30,120 -88,247 -103,362z"/>
   <path class="fil9" d="M5868 13910c54,50 93,53 144,87 101,67 212,194 433,238 -24,-105 -166,-286 -197,-409 -44,-41 -499,-952 -530,-1046 -36,-31 -47,-55 -75,-86 -28,-32 -55,-55 -82,-86l-154 -170c13,97 31,111 65,181 31,66 9,145 18,225 30,257 212,297 272,688 20,133 98,280 106,378z"/>
   <path class="fil9" d="M2570 8628c-2,81 -33,159 -40,236 -9,85 4,180 -14,263 -48,222 -78,219 -53,475 18,184 26,332 26,519 0,167 26,357 37,525l62 99c16,-120 29,-345 91,-415 17,-40 39,-64 46,-106 8,-42 -2,-90 5,-135 14,-84 51,-134 54,-241 5,-159 -132,-261 -87,-466 25,-115 90,-383 67,-497 -32,-159 -96,-352 -85,-519 -23,26 -20,28 -34,70 -8,25 -14,45 -22,70 -13,39 -22,101 -53,122z"/>
   <path class="fil14" d="M15989 11929c-23,39 73,153 -65,267 -37,31 -87,52 -143,53 -95,3 -67,-32 -137,12l-14 -54c-13,109 -1,113 -70,182 -49,49 -64,74 -120,115l-58 81c-50,71 -164,185 -234,230 -19,51 -67,80 -105,119 -43,43 -64,86 -116,114 -35,40 -56,59 -107,83 22,-96 71,-177 100,-280 28,-102 43,-196 49,-306l-3 -69c-5,8 -8,10 -15,27 -9,21 -4,5 -9,31 -18,94 -11,213 -67,337l-20 34c-1,-2 -4,5 -7,8 -44,-79 -81,-215 -114,-306 -46,-124 87,-236 47,-286 -118,255 -150,412 -112,664 55,362 -52,324 -286,532 10,13 23,26 34,46l30 25 22 2c81,-56 162,-116 243,-170 45,-30 78,-57 123,-84 31,-19 108,-51 130,-76 -61,-23 -42,-34 0,-66 122,-110 75,-100 257,-156l-66 -7c20,-58 -1,8 5,-35 10,-61 -43,-22 11,-32 -1,-49 186,-207 233,-251 43,-39 86,-86 126,-120 42,-36 105,-71 134,-107 27,-41 31,-33 83,-65 269,-163 198,-231 336,-377 39,-42 138,-51 163,-108l-55 -8c18,-57 121,-171 157,-216 -7,-48 -7,-21 -32,-65 -5,-7 -15,-28 -19,-34 -33,-54 39,54 -11,-17l-14 -15c-88,122 -197,230 -284,348z"/>
   <path class="fil8" d="M6904 14451l26 -4c11,-147 136,-385 50,-677 -18,-62 -44,-79 -80,-117 -354,-366 -286,-550 -398,-742l-192 -185c-40,-23 -84,-38 -116,-64 -89,-72 -51,-130 -181,-193 24,86 69,172 96,264 33,116 34,171 89,275 31,59 118,143 164,198 309,372 142,269 232,481 35,83 72,173 106,256 69,168 143,336 204,508z"/>
   <path class="fil9" d="M12357 15006c78,2 152,20 216,50 205,94 400,114 642,158 150,26 222,136 425,77 127,-37 286,-156 359,-162l38 -24c4,-1 7,-2 11,-3l146 -23c70,-10 131,-15 201,-21 -9,-7 -7,-7 -23,-15l-178 -55c-64,-18 -154,-47 -224,-39 -282,29 -693,5 -982,-35 -113,-15 -374,-71 -469,-58 -70,17 -165,66 -162,150z"/>
   <path class="fil12" d="M3114 4156c-35,62 -123,148 -172,197 -113,115 -216,280 -324,402 -30,34 -151,153 -177,165 30,-101 138,-437 201,-529 12,-17 6,5 13,-21l-29 -56 -32 24 -250 557c-129,227 -156,270 -210,582 -13,75 -12,159 -27,231 -15,75 -50,126 -70,191l-35 -22c19,35 41,86 59,113l25 -20c-20,-40 66,-169 87,-196 153,-190 142,-150 263,-372 70,-127 46,-83 157,-166 33,-59 86,-94 119,-142 28,-84 66,-118 84,-227 20,-127 31,-139 74,-245l3 28c26,-34 34,-100 55,-142 83,-165 158,-84 207,-355l-21 3z"/>
   <path class="fil15" d="M16993 10595l229 -531c-26,-258 75,-319 42,-413 -12,-36 -26,-35 -38,-80 -67,-244 33,-523 -72,-732 -29,-58 -134,-261 -170,-296 -36,80 -86,407 -80,515 14,250 97,598 108,809 6,110 -67,129 -83,208 -10,52 25,191 34,249 7,48 -10,263 30,271z"/>
   <path class="fil14" d="M12397 14680c-33,43 -228,131 -295,140 -60,-85 -34,-32 -67,-148 -76,-275 14,-479 -26,-545 -13,100 -41,352 -29,447 10,76 38,135 -6,203 -38,58 -79,64 -115,119 77,68 98,29 147,152l9 24 342 -66c-3,-84 92,-133 162,-150 34,-52 52,-23 103,-78 75,-69 137,-167 225,-216 92,-51 242,-79 361,-84 -13,-11 -8,-7 -30,-16l-67 -24c36,-55 259,-200 304,-216 259,-90 150,-58 345,-171l45 -14c2,-3 6,-6 8,-7l16 -14c3,-2 6,-4 9,-6 10,-7 20,-12 33,-19 19,-10 38,-20 59,-31l118 -70 44 -33c-42,-40 -39,-63 -73,-102 -124,64 -276,167 -400,243 -137,84 -264,172 -399,244 -41,20 -16,19 -86,49 -137,59 -290,241 -544,281 43,-132 166,-269 210,-407 -28,-65 216,-583 216,-751 -197,370 -250,622 -387,1020 -55,159 -11,151 -232,246z"/>
   <path class="fil14" d="M1904 6622l-127 27 -109 589 -54 -140c-7,85 55,141 48,288 -5,105 -6,211 -16,313l-13 427c-17,68 -63,91 -127,49 -120,-16 -204,-29 -287,-90 -76,-56 -132,-100 -210,-153 -155,-106 -172,-292 -269,-451 -46,-26 -117,-88 -175,-128 -32,-23 -56,-38 -85,-59 -39,-27 -51,-51 -76,-34 7,132 147,171 305,402 54,79 96,137 164,186 264,191 106,172 394,318 119,61 428,71 404,319 -12,134 -25,190 9,327l27 0c17,-32 28,-38 66,-48l16 -16c2,-2 14,-12 18,-14l-3 -49 -7 -80c-8,-73 0,-140 -20,-210 -23,-336 -5,-778 26,-1111 12,-139 41,-366 116,-455 31,-37 298,-216 333,-209 44,-12 10,11 27,-38l20 -108c-1,-33 2,-16 -10,-35 -58,127 -33,104 -164,169 -87,44 -148,84 -226,117l5 -103z"/>
   <path class="fil14" d="M2873 4650l-3 -28c-43,106 -54,118 -74,245 -18,109 -56,143 -84,227 105,-69 49,-99 102,-182 57,-90 816,-701 984,-731 120,-22 166,49 245,49 106,20 55,50 221,-58 86,-57 99,-65 223,-90 109,-21 481,-20 552,39 74,8 127,44 208,36 69,-6 137,-33 197,-49 -44,-42 -277,-29 -460,-101 -70,-27 -102,-71 -202,-73 -84,-2 -165,21 -234,42 -159,48 -230,113 -429,94 -229,-21 -264,-29 -463,46 168,-167 62,-149 203,-182 51,-11 103,-22 151,-42 188,-79 54,-114 266,-47 124,40 427,17 559,7l-38 -18 -432 -45c-62,-19 -79,-31 -105,-73 -31,-16 -66,-20 -111,-15 23,-43 221,-136 221,-159 -69,14 -145,72 -219,102 -105,42 -146,38 -236,101 -190,131 -173,171 -289,372 -56,99 -441,345 -554,444 -39,33 -141,130 -193,144l-6 -55z"/>
   <path class="fil9" d="M2276 10783c-34,-19 -84,-10 -182,-79 30,-20 112,-24 154,-32l58 -20c-128,-119 -346,-187 -516,-261 -86,-37 -155,-126 -206,-182 -68,-71 -122,-134 -197,-205 -237,-228 -184,-1 -428,-363 -60,-90 -111,-133 -171,-217 -28,-39 -143,-210 -129,-244l-30 -18c61,327 57,369 226,584 119,152 78,283 352,464 250,165 225,106 465,352 186,191 286,169 604,221z"/>
   <path class="fil9" d="M18530 9617l70 -189c28,-75 51,-147 81,-215 -49,12 -309,264 -391,333 -142,118 -237,243 -372,367 -186,171 -415,317 -573,515 -35,44 -152,169 -147,220 62,37 151,-22 210,-51 630,-313 708,-613 839,-679 146,-74 108,-16 220,-233 29,-56 30,-42 63,-68z"/>
   <path class="fil8" d="M2679 8366c-11,167 53,360 85,519 23,114 -42,382 -67,497 -45,205 92,307 87,466 -3,107 -40,157 -54,241 -7,45 3,93 -5,135 -7,42 -29,66 -46,106l296 -228c108,-92 73,-378 95,-424 -14,-111 -70,-239 -97,-354 -38,-167 44,-277 18,-393 -27,-123 -226,-313 -283,-592 -28,11 -15,-4 -29,27z"/>
   <path class="fil9" d="M14974 12427c53,-9 44,-2 63,46 40,100 28,164 -3,258 -33,102 -83,224 -107,317 52,-28 73,-71 116,-114 38,-39 86,-68 105,-119 38,-135 56,-191 104,-307 23,-54 90,-246 88,-308 -19,-417 -90,-96 30,-545 33,-124 76,-125 48,-249 -16,-68 -17,-206 25,-260 -11,-14 -4,-3 -14,-27 -40,-106 -57,-286 -74,-326 -26,272 -110,571 -175,828 -34,137 -91,238 -144,360 -76,176 -47,245 -62,446z"/>
   <path class="fil9" d="M5070 14787c118,-12 122,10 198,58 49,31 111,62 175,87 190,75 269,-31 404,-64 139,-34 292,-56 428,-88 172,-40 215,-116 382,-120l4 -56c-40,-31 -85,-73 -152,-92 -119,-8 -317,45 -435,61l-697 51c-224,7 -146,-65 -436,25l-138 43c-4,1 -26,24 -35,15l365 62 -63 18z"/>
   <path class="fil14" d="M2953 11418c31,46 148,177 141,221 -3,2 -8,6 -11,7 -3,2 -8,5 -11,7l-28 10c264,89 209,289 396,409l153 113c27,36 79,68 120,107 44,41 69,66 109,111 74,82 153,145 221,220 30,17 22,11 38,28 -4,23 -11,18 -18,28 -38,59 -20,28 -65,45 51,21 124,36 162,67 46,39 61,85 107,130 -38,26 -16,12 -29,30 115,33 363,252 466,317l27 -12 22 -21c3,-3 11,-15 13,-17 12,-18 5,-8 15,-24 -260,-206 -282,-185 -276,-416 6,-253 82,-185 -31,-587 -10,16 -4,2 -7,26 -4,32 3,-16 -1,30 -4,37 0,18 -14,59l-104 322c-59,-171 -80,-289 -105,-478 -40,262 127,581 133,676 -28,-11 -27,-12 -57,-37l-46 -53c-41,-26 -73,-71 -110,-116 -26,-32 -85,-75 -95,-116 -58,-36 -191,-172 -223,-229 -15,-26 -32,-46 -44,-69 -46,-38 -80,-77 -117,-119 -47,-52 -63,-80 -59,-175l-23 45c-55,-38 -149,33 -259,-60 -82,-69 -63,-146 -51,-261 -94,-99 -190,-237 -281,-347 -21,67 -43,78 -58,129z"/>
   <path class="fil11" d="M5613 12031c27,40 110,105 144,122 12,-17 1,-9 26,-20 1,-1 36,-11 38,-12 32,-7 55,-12 85,-19 356,-89 485,-173 729,-245 242,-71 527,-57 948,-216 157,-60 450,-146 637,-144l214 -55c34,-17 224,-20 283,-21 1,110 9,133 -59,194 -66,59 -86,50 -168,23 38,59 126,13 192,4 18,-61 62,-94 111,-126l-32 -21 15 -70 59 7 19 18c1,-3 6,3 9,5 46,-42 107,-57 193,-50 72,6 102,52 120,115 27,-67 30,-107 127,-111 94,-3 127,32 169,71 1,85 -121,233 -167,276 -28,26 -50,38 -39,70 14,46 19,49 62,70 -41,-110 4,-152 63,-211 19,-26 36,-53 51,-70 18,-49 0,-1 20,-38 80,-155 -138,-244 -265,-136 -21,18 3,4 -24,18 -142,-152 -180,-30 -317,-62 -75,-17 -51,-24 -79,-62 -63,-86 -522,53 -696,80 -93,14 -164,1 -258,24 -77,18 -149,35 -228,56 -67,18 -135,47 -205,68 -294,87 -607,143 -891,235 -186,59 -702,247 -886,233z"/>
   <path class="fil14" d="M17473 9405c-8,85 -86,271 -117,359l-97 256c-20,50 -24,79 -37,44l-229 531c-30,71 -112,257 -182,307 -7,35 -44,100 -77,123 -4,-96 -31,-372 -87,-413 -64,-42 -105,-80 -168,-126 -56,-40 -108,-75 -155,-117 -56,-49 -73,-114 -81,-196 -1,-22 -20,-232 -21,-234 -9,86 2,156 6,235 5,116 5,130 66,199 236,266 134,104 196,309 18,58 49,137 81,178 39,49 95,66 102,157 10,158 -136,239 -182,319 63,3 133,33 178,26 52,-61 80,-92 134,-153 54,-62 58,-101 158,-122 -50,-127 94,-247 192,-475l177 -430c9,-40 1,-46 30,-74l249 -722 -136 19z"/>
   <path class="fil9" d="M2149 9766c10,18 12,106 33,157 18,45 37,89 57,136 34,79 90,188 114,265l18 -47c3,-19 4,-58 4,-78 5,-136 43,-354 37,-388 -15,-81 -78,-92 -79,-208 -1,-89 24,-168 36,-262 43,-333 95,-461 46,-781 -7,-51 -24,-205 -59,-244 -44,52 -120,211 -153,288 -85,195 -20,345 -49,610 -19,168 -27,109 -50,175 -19,53 48,264 45,377z"/>
   <path class="fil5" d="M4773 6215c29,-19 21,-15 42,-40 69,-78 -33,31 18,-21l88 -57c58,-32 31,-27 110,-3 45,14 24,-5 64,30 80,72 53,189 -21,247 -18,14 -30,22 -61,32 -79,24 -149,7 -194,-54 -31,-42 -13,-12 -24,-71 -10,-57 8,-38 -22,-63zm221 -323l0 0c-39,-23 -68,-114 -88,-159 -42,-91 -62,-161 -95,-249 0,82 33,188 39,273 3,32 5,118 0,135 -7,26 20,-30 -8,17 -27,45 -16,35 -51,11l1 61 -51 -46 25 80 -71 -63c13,35 14,28 26,68 -50,-15 -29,-8 -67,-30l59 83 -94 -45c20,18 41,45 62,75l-81 -26c12,13 19,16 35,32 23,22 17,11 13,25 -6,21 2,-23 -10,14l-1 10c9,44 17,13 18,16l-63 0c3,3 7,7 9,10l35 35 -90 2c49,24 31,-4 55,35l-415 129c-2,-3 -7,5 -10,9l398 -49c11,22 41,-1 -19,35l90 -9c-3,3 -6,6 -8,9l-30 39 65 -12 -35 32 49 10 -57 67c37,-16 28,-16 70,-29 -16,52 -12,39 -38,73 13,-7 38,-30 41,-31 23,-9 3,-5 13,-3 2,0 5,2 7,3l19 22c1,-3 4,7 4,8l15 42 55 -64 15 38c2,3 4,8 5,11l12 34c1,4 2,25 4,35l28 -81 32 53 21 -55 13 105 25 -112 32 84 7 -87c6,13 15,39 24,53 105,171 89,191 134,268l-32 -233c0,-21 20,-12 8,-55 -7,-28 -14,-43 -16,-69 8,16 41,44 60,55l-26 -77 80 72c-18,-35 -22,-35 -33,-82l66 35 -37 -51c42,-29 32,25 45,-14 1,-3 6,-1 7,-1l-48 -45 29 -17 59 -7 -43 -48c10,1 29,2 39,1 23,-2 21,-5 31,-11 -39,-11 -42,-9 -72,-32l61 -1 -50 -37 93 -15 -86 -23 75 -47c98,-24 420,-121 486,-123 -62,-4 -365,40 -563,40 9,-28 20,-42 45,-53l-96 30 35 -56 -64 30 29 -67 -53 39c0,-1 0,-13 -6,-21 -1,-1 -4,-4 -4,-4l-9 -6c-20,-17 -18,-56 -17,-56l-42 49 20 -100 -54 83 -6 -74 -36 51 -3 -63c-30,24 -14,30 -45,12z"/>
   <path class="fil14" d="M5407 12438l154 170c27,31 54,54 82,86 28,31 39,55 75,86l315 303c0,0 227,718 215,743 31,123 173,304 197,409 -221,-44 -332,-171 -433,-238 -51,-34 -90,-37 -144,-87 -63,-20 -311,-192 -384,-240 -123,-82 -239,-157 -366,-240l-64 100c8,10 1,4 18,20 5,4 17,12 17,12l109 70c43,24 72,33 104,73l67 25c188,100 15,39 319,164 64,26 237,160 273,207l-93 41c102,5 267,36 342,85 77,49 159,187 216,217 44,53 54,17 83,68 67,19 112,61 152,92l-4 56 97 13c28,-42 9,-77 49,-122l36 -45c11,-15 7,-11 20,-25 0,0 18,-17 18,-17 -20,-27 -8,-18 -50,-35l-173 -73c-51,-25 -68,-37 -110,-61 -141,-83 -78,-30 -178,-328l-153 -508c-70,-237 -207,-359 -278,-705 -286,-67 -351,-251 -533,-375l5 59z"/>
   <path class="fil8" d="M4273 12736l46 53c30,25 29,26 57,37 -6,-95 -173,-414 -133,-676 25,189 46,307 105,478l104 -322c14,-41 10,-22 14,-59 4,-46 -3,2 1,-30 3,-24 -3,-10 7,-26 -136,-346 -49,-239 -99,-472 -32,-149 -62,-308 -97,-457 -32,-138 -234,-287 -380,-755 -44,-6 -11,-7 -21,22 100,510 83,647 293,1150 69,167 48,235 59,425 -190,165 24,447 44,632z"/>
   <path class="fil12" d="M15569 5176c123,41 302,206 369,277 253,263 630,467 980,602 81,31 164,74 236,97l21 -31c-34,-30 -95,-54 -139,-81 -25,-15 -47,-30 -71,-48 -38,-30 -42,-18 -28,-44 -7,-6 -12,-10 -24,-17 -11,-7 -25,-13 -35,-18 -81,-37 -119,-47 -183,-115 -106,-112 -109,-207 -266,-318 -91,-64 -222,-204 -270,-311l-54 -27 -353 -44c-111,0 -197,-20 -320,-3l137 81z"/>
   <path class="fil8" d="M14942 14091c-131,33 -138,-15 -209,-14l-415 102c-165,28 -155,28 -317,-8l-219 -67c-49,-24 -47,1 -22,-53 -195,113 -86,81 -345,171 -45,16 -268,161 -304,216l67 24c22,9 17,5 30,16 93,-9 188,-20 280,-24 105,-4 191,22 294,6 285,-43 325,-163 1027,-220 203,-16 361,-147 457,-168l22 3c-24,-39 11,-12 -37,-22 -7,-1 -34,2 -43,4 -135,25 -97,31 -266,34z"/>
   <path class="fil9" d="M3807 10874c14,97 27,177 4,274 -19,80 94,298 109,429 9,72 -19,178 -21,256 -16,161 -14,104 62,341 48,151 48,103 107,330 10,41 69,84 95,116 37,45 69,90 110,116 -20,-185 -234,-467 -44,-632 -11,-190 10,-258 -59,-425 -210,-503 -193,-640 -293,-1150 -3,6 -67,318 -70,345z"/>
   <path class="fil9" d="M936 9367c56,45 48,75 102,170 71,124 66,66 159,126 103,66 206,368 766,659 57,30 140,86 199,56 5,-54 -77,-141 -126,-207 -103,-138 -406,-405 -537,-513 -72,-59 -203,-230 -342,-357 -89,-82 -277,-287 -369,-337 23,74 153,386 148,403z"/>
   <path class="fil8" d="M14781 12321c40,50 -93,162 -47,286 33,91 70,227 114,306 3,-3 6,-10 7,-8l20 -34c56,-124 49,-243 67,-337 5,-26 0,-10 9,-31 7,-17 10,-19 15,-27l3 69c26,-42 26,-59 5,-118 15,-201 -14,-270 62,-446 53,-122 110,-223 144,-360 65,-257 149,-556 175,-828l-12 -38c-33,105 -115,266 -161,374 -57,128 -142,211 -212,319 -67,104 -85,280 -117,414 -74,307 -42,302 -72,459z"/>
   <path class="fil16" d="M14402 6214c57,-11 3,95 -20,122 -35,42 -87,63 -152,65 -106,3 -212,-81 -213,-176 -1,-81 3,-187 179,-204 168,-16 205,119 232,172l-26 21zm-253 -372l0 0 -3 62c-30,-16 -25,-43 -45,25l-52 -84 20 102c-16,-15 -3,-6 -19,-20l-24 -19c-3,-2 -7,-5 -10,-7l12 64c-24,-25 -57,-47 -68,-74l35 92c-20,-10 -29,-15 -49,-29 -28,-21 -32,-24 -34,-36l57 92 -66 -27 33 52c-102,-7 -38,-13 -59,25 -161,-6 -317,-25 -483,-36 100,67 297,64 408,126 10,6 0,2 25,15 27,14 34,10 56,28l-86 19 98 16 -102 36 90 4 -48 41c47,0 36,-7 65,10 -32,15 -70,48 -92,46l116 -24 -73 68 114 17 -59 73 85 -59 -27 67 56 -34c4,9 -17,30 -1,57l37 -42c-14,82 -1,101 -22,186 -16,66 -35,129 -46,200l16 -17c11,-13 4,0 19,-25l58 -136c18,-40 19,-49 46,-84 35,-46 21,-39 47,-88l10 74c2,-3 5,-12 6,-10 8,21 3,-14 23,-55l21 80 23 -83 29 88c10,-46 -3,-52 18,-88l35 94 -2 -86 46 45 32 -41c2,2 6,5 9,7l-15 -66 36 36 14 -53 60 49c-20,-30 -36,-58 -53,-82l90 44c-33,-27 -33,-49 -63,-72l92 30c-30,-23 -37,-39 -74,-60 26,-12 24,-4 69,3l-22 -27c-2,-3 -5,-7 -7,-10 -2,-2 -5,-6 -7,-10l78 9c-2,-4 -25,-16 -20,-33 134,-4 267,35 408,43 -34,-23 -420,-128 -426,-129 22,-42 -17,-13 52,-37l-86 -4 35 -35c2,-1 5,-4 8,-7l-61 -1 24 -42 -35 -8 74 -56 -96 36c21,-32 32,-35 52,-68l-82 36 61 -84c-35,19 -16,15 -65,30l27 -69 -71 63 23 -80c-37,25 -21,29 -59,48l-16 -38c-35,-39 -6,-11 -20,-40l-16 -37c-17,-115 44,-308 44,-394 -24,102 -96,270 -143,365l-26 42c-42,49 -47,16 -59,1z"/>
   <path class="fil14" d="M2007 9831c53,53 19,57 46,129 60,157 176,461 255,587 49,78 95,142 84,264 77,12 101,69 142,119 44,56 83,97 122,153l154 -38c-46,-76 -191,-179 -154,-339 24,-102 108,-75 169,-314 54,-218 -5,-46 189,-302 64,-84 68,-287 56,-412 -22,46 13,332 -95,424l-296 228c-62,70 -75,295 -91,415l-62 -99c-2,-3 -5,-11 -6,-9 -8,18 -153,-278 -167,-313 -24,-77 -80,-186 -114,-265 -20,-47 -39,-91 -57,-136 -21,-51 -23,-139 -33,-157 -1,4 -4,17 -5,20 -10,22 -7,13 -18,26 -56,-176 -199,-486 -221,-660l-121 -14 223 693z"/>
   <path class="fil9" d="M18808 6616c15,20 23,-28 12,62l-111 512c-72,332 -220,457 -343,721 -44,96 -94,134 -156,194 -227,216 -119,126 -342,282 -52,37 -31,28 -30,35 339,-27 345,-89 569,-237 180,-119 213,-263 325,-489 53,-117 72,-249 109,-284 16,-142 64,-248 68,-415 2,-112 -34,-309 -61,-416l-40 35z"/>
   <path class="fil10" d="M10665 14495c56,13 81,6 144,-15l49 -16 10 44c2,-4 4,-8 5,-11 18,-35 19,-45 49,-59 59,-26 219,-56 297,-50 -37,65 -75,81 -114,180 -66,164 -172,508 -261,608 -106,120 -288,80 -450,132 -70,22 -96,70 -182,105 -64,26 -133,54 -195,88l57 -5c19,-7 37,-15 57,-23 39,-15 83,-32 121,-47 99,-41 148,-65 269,-55 175,15 419,100 530,-40 64,-80 105,-371 159,-502 27,-65 81,-148 113,-211l105 -217c164,-4 194,90 168,252l39 -21 -4 -100c2,-14 46,-73 -13,-154 -13,-18 4,-4 -28,-28 -22,-17 5,0 -30,-16 -27,34 27,26 -55,15 -338,-47 -444,-7 -751,102l-89 44z"/>
   <path class="fil8" d="M3951 13738c79,20 239,148 416,169 178,20 335,38 509,74 166,34 266,106 444,140 104,20 174,-6 278,-3 90,2 179,16 270,24l93 -41c-36,-47 -209,-181 -273,-207 -304,-125 -131,-64 -319,-164 -18,51 13,18 -43,48 -6,3 -48,17 -57,20 -393,144 -416,28 -847,-59 -18,35 11,23 -54,30l-207 -10c-63,-5 -261,-65 -210,-21z"/>
   <path class="fil12" d="M3509 4927l-301 39c10,-24 2,-20 9,-27 -33,13 -66,38 -98,55 -7,75 -101,165 -150,215 -75,78 -142,115 -193,183 -52,71 -94,158 -145,218 -68,78 -180,91 -229,146 54,13 -172,136 -210,156 6,42 0,15 24,34l461 -198c480,-232 618,-507 914,-707 60,-41 157,-84 207,-130 -112,-5 -180,-7 -289,16z"/>
   <path class="fil9" d="M17351 6098l40 -70 24 86c37,-253 149,-347 78,-493 -120,-251 -155,-140 -164,-452 -7,-229 -247,-389 -415,-524 -47,-39 -131,-116 -180,-138 28,113 127,276 179,385 84,178 145,255 192,352 174,359 107,738 246,854z"/>
   <path class="fil8" d="M16247 11936c-25,57 -124,66 -163,108 -138,146 -67,214 -336,377 -52,32 -56,24 -83,65 188,-51 332,-138 490,-215 182,-90 329,-117 511,-188 102,-41 135,-85 223,-127 243,-117 220,-34 493,-208 37,-24 66,-47 105,-76 14,-10 39,-27 52,-40 41,-37 24,-23 21,-33 -117,17 -244,26 -366,36 -212,18 -175,1 -305,113 -74,64 -133,121 -265,149 -104,22 -272,42 -377,39z"/>
   <path class="fil12" d="M17775 7356c26,29 -28,85 -38,160 -7,58 5,169 7,232 7,148 3,324 18,466 13,-89 -19,-210 5,-293 18,-61 82,-141 117,-168 250,-193 289,-745 353,-1096 9,-44 14,-82 23,-125 31,-155 14,-110 -5,-120 -53,61 -106,142 -154,210 -48,70 -89,130 -130,220 -53,114 -168,395 -196,514z"/>
   <path class="fil12" d="M17762 8214c-6,61 -3,249 76,208 -1,-7 -22,2 30,-35 223,-156 115,-66 342,-282 62,-60 112,-98 156,-194 123,-264 271,-389 343,-721l111 -512c11,-90 3,-42 -12,-62l-295 289c-23,-54 -23,-98 -55,-162 -26,-50 -50,-87 -75,-135 -28,85 169,249 74,486 -73,181 14,336 -93,556 -75,155 -156,274 -247,401 -79,111 -214,264 -342,312l-13 -149z"/>
   <path class="fil9" d="M624 7193c50,28 44,68 61,130 17,64 33,103 55,158 97,159 114,345 269,451 78,53 134,97 210,153 83,61 167,74 287,90l55 8 -184 -152c-90,-76 -257,-256 -307,-366l-233 -442c-53,-100 -54,-138 -79,-256 -10,-43 -123,-511 -94,-557l-33 -29c-26,63 -58,332 -56,409 3,180 74,357 49,403z"/>
   <path class="fil17" d="M11172 11475c84,24 220,37 308,44 266,24 943,229 1269,239 430,14 667,86 1010,108 48,-18 50,-36 90,-74 35,-33 56,-41 81,-80 -81,17 -2158,-218 -2400,-235 -69,-5 -116,-8 -180,-16 -50,-6 -115,-19 -168,-21l-10 35z"/>
   <path class="fil12" d="M16738 6906c35,313 178,871 325,1103 43,68 87,156 136,227 47,67 106,133 157,192 77,89 227,329 227,497l7 -24c11,-77 -12,-102 21,-264 -350,-922 -421,-748 -687,-1332 -121,-263 -80,-223 -134,-372 -14,-41 -35,-85 -48,-124 -14,22 -11,5 -14,42 0,6 8,47 10,55z"/>
   <path class="fil0" d="M11571 17179l-46 -52c-26,-25 -22,-23 -42,-49 -98,-131 -159,-14 -253,-31 -193,-36 -233,-312 -393,-489 -279,-309 -282,-158 -593,-482 -45,-47 -198,-116 -232,-126 1,93 -10,96 42,147 35,34 56,57 90,92 107,112 98,119 200,162 182,77 294,203 410,316 57,55 123,124 125,234 4,349 193,238 411,319 76,28 144,70 219,97l0 0 1 0 1 1 1 0 0 0 1 0 1 1 0 0 1 0 0 0 1 0 1 1 1 0 0 0 0 0 1 0 1 1 0 0 1 0 1 0 0 0 1 1 0 0 1 0 1 0 1 1 0 0 1 0 0 0 1 0 1 1 0 0 1 0 1 0 0 0 1 0 0 1 1 0 1 0 1 0 0 1 0 0 1 0 1 0 1 0 0 0 1 1 1 0 0 0 1 0 0 0 1 1 1 0 1 0 0 0 0 0 1 0 1 1 1 0 0 0 1 0 0 0 1 0 1 1 0 0 1 0 1 0 1 0 0 1 0 0 1 0 1 0 1 0 1 0 0 1c14,20 88,33 133,71 47,41 92,53 134,87 8,7 17,21 25,41l6 -131 91 -85c-9,0 -19,-2 -31,-4l-310 -121c-25,-10 -14,-8 -34,-11z"/>
   <path class="fil8" d="M3593 12185l-153 -113c-187,-120 -132,-320 -396,-409l28 -10c3,-2 8,-5 11,-7 3,-1 8,-5 11,-7 -115,9 -259,-6 -370,-29 -344,-68 -172,-228 -531,-260 -121,-11 -248,-22 -366,-37 -6,25 37,47 64,67 382,288 229,123 551,278 85,41 114,86 211,126 177,72 311,99 476,185 154,80 282,163 464,216z"/>
   <path class="fil9" d="M1957 6023l23 -187c39,26 12,-10 22,41l35 22c20,-65 55,-116 70,-191 15,-72 14,-156 27,-231 54,-312 81,-355 210,-582l250 -557c-41,18 -141,111 -182,146 -201,167 -376,299 -368,569 6,203 -156,299 -175,443 -21,152 101,188 88,527z"/>
   <path class="fil18" d="M10357 16005c150,39 281,91 423,132 151,43 333,36 500,60 344,51 642,120 1016,94 42,-55 3,-71 75,-100 -56,-42 -208,-27 -288,-36l-1403 -193c-177,-26 -369,-82 -541,-101l-15 10c55,20 156,100 233,134z"/>
   <path class="fil12" d="M1506 8175c64,42 110,19 127,-49 -104,-17 -259,-212 -317,-293 -411,-575 -241,-648 -304,-902 -45,-177 -92,-135 -5,-354 46,-113 35,-87 14,-105 -34,82 -56,122 -78,223 -57,-59 -73,-88 -135,-143 -50,-46 -93,-93 -144,-142 -29,46 84,514 94,557 25,118 26,156 79,256l233 442c50,110 217,290 307,366l184 152 -55 -8z"/>
   <path class="fil12" d="M1646 7699c10,-102 11,-208 16,-313 7,-147 -55,-203 -48,-288 -19,-78 -63,-180 -90,-252 -30,-84 -57,-160 -89,-234 -61,-137 -177,-297 -256,-407 -16,11 -27,-10 -7,99 64,338 99,823 254,1107 38,69 71,84 117,130 39,39 62,114 103,158z"/>
   <path class="fil8" d="M15172 12964c-54,10 -1,-29 -11,32 -6,43 15,-23 -5,35l66 7c172,-44 349,-120 524,-177 151,-49 436,-71 609,-92 228,-29 325,-121 501,-199l510 -206c-15,-16 -2,-8 -31,-16 -126,7 -172,-16 -280,-51 -86,38 -89,112 -211,122 -144,12 -122,12 -233,75 -277,157 -530,104 -755,204 -58,26 -132,103 -183,127 -56,27 -188,34 -263,51 -88,20 -152,65 -238,88z"/>
   <path class="fil15" d="M15354 12200c-1,32 5,352 28,385l58 -81c28,-75 84,-235 130,-299 11,-17 7,-13 20,-25 -90,-143 -71,-197 26,-305 -2,-3 -5,-7 -6,-10 -26,-55 -20,-111 -14,-176 25,-252 222,-318 260,-304 68,-74 28,-243 11,-341 -15,-93 -24,-259 -42,-342 -5,73 -52,355 -76,425 -58,161 -250,240 -299,438 -61,242 -101,2 -96,635z"/>
   <path class="fil12" d="M1777 8395c20,70 12,137 20,210 2,-3 4,-7 5,-9l25 -57c128,-349 270,-385 501,-833l181 -532c45,-195 60,-411 110,-603 -55,46 -79,151 -98,239 -18,82 -58,170 -90,247 -159,392 -361,595 -470,865l-184 473z"/>
   <path class="fil8" d="M16762 8862c-9,56 28,163 38,231 12,81 -1,186 14,267 40,216 92,216 64,479 -20,183 -33,343 -31,528 2,177 -32,356 -36,535 70,-50 152,-236 182,-307 -40,-8 -23,-223 -30,-271 -9,-58 -44,-197 -34,-249 16,-79 89,-98 83,-208 -11,-211 -94,-559 -108,-809 -6,-108 44,-435 80,-515 -12,-36 -31,-81 -63,-107l-159 426z"/>
   <path class="fil8" d="M1984 12035c21,23 13,16 47,34l415 181c145,66 293,182 467,207 161,23 451,43 585,89 171,59 332,133 500,178 45,-17 27,14 65,-45 7,-10 14,-5 18,-28 -16,-17 -8,-11 -38,-28 13,57 8,13 -13,28 -67,-26 -135,-69 -213,-86 -77,-17 -186,-19 -246,-54 -146,-85 -55,-119 -411,-185 -218,-41 -286,-37 -457,-138 -121,-72 -77,-51 -227,-72 -104,-14 -103,-97 -182,-115 -119,34 -168,66 -310,34z"/>
   <path class="fil19" d="M7448 14456l1 0 2 0 2 0 2 0 2 0 1 0c36,-2 73,-3 109,-2 4,0 44,3 46,3 44,14 23,-2 45,32 -12,86 4,135 43,191 39,55 69,113 129,126 17,34 122,131 185,246 48,89 104,210 154,287 79,124 525,158 715,143 -15,-23 -18,-26 -34,-52 -265,-11 -512,-146 -595,-319 -83,-173 -32,-263 -251,-437 -55,-43 -75,-71 -35,-146l329 63c-4,-22 10,-37 -6,-11l34 -6c-67,-66 -564,-142 -697,-155 -52,-4 -188,-12 -246,17l0 0 0 1 0 0 -1 0 0 0 0 0 0 0 0 0 0 0 -1 0 0 0 0 1 0 0 0 0 -1 0 0 0 0 0 0 0 0 0 0 0 -1 0 0 1 0 0 0 0 0 0 -1 0 0 0 0 0 0 0 0 0 0 0 0 0 -1 0 -1 1 0 0 0 0 0 0 0 0 0 1 0 0 -3 1 0 0 0 0 0 0c-84,-4 -80,35 -116,66l42 47c1,-2 2,-4 3,-7 22,-58 83,-74 146,-92z"/>
   <path class="fil15" d="M3403 11086c83,28 181,91 213,163 35,78 62,249 26,337 76,111 100,167 15,297l23 26c2,3 20,41 21,44 12,24 24,51 36,81 23,59 37,109 64,172 12,23 29,43 44,69 3,-3 5,-11 5,-9l25 -511c8,-179 7,-249 -59,-396 -58,-129 5,-113 -154,-299 -67,-78 -143,-147 -169,-283 -17,-90 -80,-331 -35,-395l-20 -2c-1,124 -10,245 -31,360 -18,100 -57,265 -4,346z"/>
   <path class="fil20" d="M9524 11911c-16,143 4,388 4,543 1,88 6,176 8,259 1,52 -24,351 163,243 82,-48 61,-325 62,-411 1,-138 27,-515 5,-621l-179 -102c-32,26 -58,39 -63,89z"/>
   <path class="fil9" d="M16937 5948c74,17 279,183 357,227 -42,-160 -178,-291 -264,-389 -62,-72 -75,-107 -127,-197 -78,-135 -51,-84 -165,-161 -87,-20 -214,-93 -293,-133 -90,-44 -196,-82 -286,-126 48,107 179,247 270,311 157,111 160,206 266,318 64,68 102,78 183,115 10,5 24,11 35,18 12,7 17,11 24,17z"/>
   <path class="fil15" d="M14304 4003c-240,12 -115,13 -363,103 -78,28 -260,101 -318,143l44 27c44,-39 179,-37 243,-47 438,-70 346,-200 702,-94 174,52 268,120 482,102 252,-21 282,-28 501,48 -176,-148 -51,-148 -231,-188 -240,-52 -239,-106 -304,-125 -37,-10 -105,28 -149,40 -98,27 -534,33 -607,-9z"/>
   <path class="fil21" d="M7637 16064c44,2 36,-3 65,-3l53 10c-13,29 3,11 -28,31 -37,24 -489,115 -516,132 -30,20 1,-13 -24,26 92,-5 199,-48 294,-67l220 -57c63,-8 59,10 67,18l-564 171c-47,11 -77,23 -77,94 99,26 317,-66 418,-100 144,-48 1081,-329 1145,-382l33 -39c-90,14 -188,79 -231,51 76,-37 301,-76 345,-137l-65 -2c-13,-11 -20,20 -6,-22l-1129 276z"/>
   <path class="fil17" d="M5757 12153c20,27 89,80 117,94 275,-100 829,-239 1179,-357l874 -293c93,-31 214,-53 293,-100 -187,-2 -480,84 -637,144 -421,159 -706,145 -948,216 -244,72 -373,156 -729,245 -30,7 -53,12 -85,19 -2,1 -37,11 -38,12 -25,11 -14,3 -26,20z"/>
   <path class="fil8" d="M2356 8316c35,39 52,193 59,244 49,320 -3,448 -46,781 -12,94 -37,173 -36,262 1,116 64,127 79,208 6,34 -32,252 -37,388 0,20 -1,59 -4,78l-18 47c14,35 159,331 167,313 1,-2 4,6 6,9 -11,-168 -37,-358 -37,-525 0,-187 -8,-335 -26,-519 -25,-256 5,-253 53,-475 18,-83 5,-178 14,-263 7,-77 38,-155 40,-236l-149 -413 -65 101z"/>
   <path class="fil12" d="M12519 14856c95,-13 356,43 469,58 289,40 700,64 982,35 70,-8 160,21 224,39l178 55c16,8 14,8 23,15 -70,6 -131,11 -201,21l-146 23c-4,1 -7,2 -11,3l-38 24c164,7 208,52 380,8 98,-26 254,-42 326,-90 -37,-26 -222,-89 -279,-104 -58,39 -365,-108 -472,-118 -73,-7 -112,12 -178,-3l-21 -8c-185,41 -395,25 -591,29 -89,2 -491,-40 -542,-65 -51,55 -69,26 -103,78z"/>
   <path class="fil22" d="M8286 17549c23,-16 2,1 25,-19 1,-1 21,-19 22,-19l28 -27 84 -80c32,-40 57,-168 70,-229 39,-174 -43,-337 4,-526 76,-305 250,-405 423,-615 40,-48 47,-20 50,-94 -131,51 -198,175 -300,258 -186,151 -273,226 -352,491 -40,133 6,106 19,211 25,213 -48,285 -97,386l0 0 0 1 -1 1 0 1 -1 2 0 1 -1 0 0 1 -1 1 0 1 0 0 0 0 -1 1 0 1 0 1 -1 1 0 1 -1 1 0 0 0 1 0 0 -1 1 0 1 0 1 -1 0 0 1 0 1 0 0 -1 2 0 0 -1 1 0 1 0 1 -1 0 0 1 0 0 0 1 -1 2 0 1 -1 0 0 1 0 0 0 1 -1 1 -1 2 0 1 0 1 0 0 -1 1 0 1 -1 3 0 1 -1 0 0 1 0 0 0 1 -2 4c-85,42 -171,198 -221,316 -10,22 -13,35 -16,43l82 -37 47 84c-4,-12 -7,-24 -10,-36l34 50c30,-46 120,-156 129,-207zm-388 192l0 1 2 -2 -2 1z"/>
   <path class="fil15" d="M5444 4108l36 -28c-109,-62 -194,-99 -318,-148 -161,-63 -153,-89 -365,-98l38 18c-132,10 -435,33 -559,-7 -212,-67 -78,-32 -266,47 -48,20 -100,31 -151,42 -141,33 -35,15 -203,182 199,-75 234,-67 463,-46 199,19 270,-46 429,-94 69,-21 150,-44 234,-42 100,2 132,46 202,73 183,72 416,59 460,101z"/>
   <path class="fil9" d="M2593 5236c-111,83 -87,39 -157,166 -121,222 -110,182 -263,372 -21,27 -107,156 -87,196 69,-46 243,-194 316,-214 49,-55 161,-68 229,-146 51,-60 93,-147 145,-218 51,-68 118,-105 193,-183 49,-50 143,-140 150,-215 -93,42 -181,79 -266,125 -55,29 -222,130 -260,117z"/>
   <path class="fil14" d="M10634 16190c208,73 661,116 900,150 153,22 297,51 448,82 188,39 267,45 467,51 -21,-41 -74,-40 -98,-97 -36,-88 25,-100 35,-164l-15 -21c-72,29 -33,45 -75,100 -374,26 -672,-43 -1016,-94 -167,-24 -349,-17 -500,-60 -142,-41 -273,-93 -423,-132 35,38 220,165 277,185z"/>
   <path class="fil12" d="M5387 14479c-64,24 -197,-15 -341,41 -65,25 -230,109 -285,73l-277 104c29,30 85,39 132,50 242,57 210,79 454,40l63 -18 -365 -62c9,9 31,-14 35,-15l138 -43c290,-90 212,-18 436,-25l697 -51c118,-16 316,-69 435,-61 -29,-51 -39,-15 -83,-68 -176,14 -324,60 -504,57 -177,-3 -370,8 -535,-22z"/>
   <path class="fil14" d="M8656 15614c80,38 189,75 241,134l-131 40c-14,42 -7,11 6,22l65 2c-44,61 -269,100 -345,137 43,28 141,-37 231,-51l-33 39c-64,53 -1001,334 -1145,382 -101,34 -319,126 -418,100 0,-71 30,-83 77,-94 -26,-25 1,-14 -45,-16 -2,0 -49,7 -60,7 45,-45 35,-17 27,-42 -14,2 -20,-2 -35,7 -40,25 -7,-16 -30,36 63,-10 -35,257 -38,265 296,-101 572,-197 869,-303 242,-87 635,-241 886,-283 32,-24 74,-28 118,-59 33,-24 63,-52 95,-72 8,-138 -17,-172 -67,-273 -74,-15 -224,-33 -268,22z"/>
   <path class="fil3" d="M8979 11635c-50,-38 -116,-115 -11,-165 55,-26 124,60 137,103 -34,33 -80,57 -126,62zm440 -114l0 0c-14,36 -58,89 -109,96 -170,23 -74,-337 109,-96zm-584 -89l0 0c-1,45 5,27 -24,68l-50 -5 32 21c-49,32 -93,65 -111,126 43,35 56,87 92,110 54,35 134,1 199,-5 46,188 283,81 293,79 -11,-32 11,-44 39,-70 46,-43 168,-191 167,-276 -42,-39 -75,-74 -169,-71 -97,4 -100,44 -127,111 -18,-63 -48,-109 -120,-115 -86,-7 -147,8 -193,50 -3,-2 -8,-8 -9,-5l-19 -18z"/>
   <path class="fil9" d="M13805 14037l-45 14c-25,54 -27,29 22,53l219 67c162,36 152,36 317,8l415 -102c71,-1 78,47 209,14l-168 2c24,-60 42,-62 77,-93 101,-89 10,-36 170,-128l85 -50c1,-4 5,-4 8,-6 -212,15 -386,121 -452,136 -328,78 -567,45 -857,85z"/>
   <path class="fil23" d="M10715 11651l24 -38c39,-108 139,-140 159,-234 -55,30 -125,96 -170,138 -38,-47 -80,-151 -115,-218 -37,-72 -122,-150 -135,-223 84,-21 155,-26 227,-71l49 -51c-134,25 -151,78 -324,79 -24,-16 -145,-134 -153,-149 -37,-69 87,-29 -105,-138 7,-76 55,-65 81,-150 -67,35 -79,84 -166,63 -33,-91 31,-99 40,-171 -71,16 -83,48 -169,16 -61,-22 -88,-57 -137,-80 -44,21 -75,70 -107,108 -34,41 -65,68 -122,98 -46,24 -123,42 -185,41 -110,-2 -104,-19 -139,-85 14,94 83,141 191,142 113,2 173,-55 257,-90 103,-42 318,64 371,112 147,133 301,279 427,441 50,66 144,238 178,327 16,43 20,127 23,133z"/>
   <path class="fil9" d="M4422 13739c431,87 454,203 847,59 9,-3 51,-17 57,-20 56,-30 25,3 43,-48l-67 -25c-213,-18 -467,-15 -667,-56 -238,-50 -93,-20 -261,-87 -67,-27 -205,-66 -277,-75 41,44 124,74 176,111 34,25 41,44 69,73 27,28 48,45 80,68z"/>
   <path class="fil8" d="M15443 11146c-42,54 -41,192 -25,260 28,124 -15,125 -48,249 -120,449 -49,128 -30,545l14 0c-5,-633 35,-393 96,-635 49,-198 241,-277 299,-438 24,-70 71,-352 76,-425l-4 -61c-78,57 -185,438 -378,505z"/>
   <path class="fil0" d="M9672 15715c6,-67 -8,-209 -28,-268l-105 -8c-158,12 -142,0 -291,-5l115 449c28,191 25,195 107,200l215 -6c14,-73 25,-315 -13,-362z"/>
   <path class="fil8" d="M3875 11755c13,42 1,42 24,78 2,-78 30,-184 21,-256 -15,-131 -128,-349 -109,-429 23,-97 10,-177 -4,-274 -126,-58 -137,-106 -205,-221 -25,-43 -50,-84 -75,-133 -29,-56 -31,-83 -69,-138 -45,64 18,305 35,395 26,136 102,205 169,283 159,186 96,170 154,299 66,147 67,217 59,396z"/>
   <path class="fil24" d="M7331 4898l-85 -318c-30,15 -8,3 -29,17l-688 530c166,-30 704,-230 802,-229z"/>
   <path class="fil8" d="M14468 13818c-41,39 -99,89 -178,98 -44,5 -229,13 -242,-26l-118 70c-21,11 -40,21 -59,31 -13,7 -23,12 -33,19 -3,2 -6,4 -9,6l-16 14c-2,1 -6,4 -8,7 290,-40 529,-7 857,-85 66,-15 240,-121 452,-136l53 -10c-35,-26 -278,-24 -344,-28 -206,-11 -181,-10 -355,40z"/>
   <path class="fil9" d="M16662 4543c-65,-16 -161,-82 -231,-115 -80,-36 -168,-85 -254,-104 31,62 130,145 179,192 62,58 115,129 174,202 98,118 254,319 366,385 -15,-83 -69,-200 -102,-287l-132 -273z"/>
   <path class="fil8" d="M4097 13487c72,9 210,48 277,75 168,67 23,37 261,87 200,41 454,38 667,56 -32,-40 -61,-49 -104,-73l-109 -70c-2,3 -7,1 -8,5 -2,4 -7,4 -9,5 -16,4 -11,4 -32,7 -245,36 -226,-7 -344,-85 -151,-51 -131,-52 -317,-40 -77,5 -270,-4 -322,25l40 8z"/>
   <path class="fil23" d="M9375 11913l149 -2c5,-50 31,-63 63,-89l179 102c65,-6 84,13 140,-21 83,-51 15,-42 101,-25 104,22 196,-34 224,-100 78,32 185,120 290,-62l119 12 -41 -24 -12 -1c-73,-27 -110,-162 -261,-324l-137 -148c-51,-51 -83,-118 -135,-168 -2,3 -5,3 -7,8 -7,34 10,-10 -30,35 115,93 496,495 469,596 -43,72 -135,123 -208,49 -44,-45 -46,-75 -147,-164 -97,-87 -262,-216 -314,-320l-45 32c21,25 49,32 117,102 78,81 310,303 331,369 -209,239 -305,-52 -475,-198l-148 -144 -31 54c62,90 299,193 366,350 -51,71 -98,60 -187,24 -24,-10 -75,-31 -94,-48 -14,-14 -16,-19 -25,-38l-28 -61c-25,59 -38,82 -82,129 -85,93 -87,38 -141,75z"/>
   <path class="fil25" d="M14402 6214l26 -21c-27,-53 -64,-188 -232,-172 -176,17 -180,123 -179,204 1,95 107,179 213,176 65,-2 117,-23 152,-65 23,-27 77,-133 20,-122z"/>
   <path class="fil26" d="M17620 6474c174,-60 221,146 68,188 -158,43 -211,-139 -68,-188zm-137 -30l0 0c-14,19 -10,21 -36,43 -22,17 -9,9 -39,20 -14,63 -54,96 -35,191 13,65 62,104 104,135l129 30 13 25 -1 -31c137,-19 285,-122 214,-292 -81,-196 -334,-121 -349,-121z"/>
   <path class="fil12" d="M14102 4290c279,-24 299,43 513,140 88,40 168,76 284,64 79,-9 208,-29 255,-84 -106,23 -151,-31 -232,-80 -89,-53 -121,-63 -239,-84 -111,-20 -508,-17 -581,44z"/>
   <path class="fil26" d="M14019 13755c34,39 31,62 73,102l-44 33c13,39 198,31 242,26 79,-9 137,-59 178,-98 33,-155 25,-80 1,-228l-22 -2c24,183 -162,180 -220,109 -75,-92 43,-204 190,-134 -11,-20 -24,-33 -34,-46 -111,-20 -156,-47 -261,13 -76,44 -105,102 -103,225z"/>
   <path class="fil9" d="M2655 4370c-7,26 -1,4 -13,21 -63,92 -171,428 -201,529 26,-12 147,-131 177,-165 108,-122 211,-287 324,-402 49,-49 137,-135 172,-197 -140,36 -376,204 -459,214z"/>
   <path class="fil26" d="M15796 11881c159,-56 239,140 89,186 -147,44 -250,-129 -89,-186zm-180 -6l0 0c-97,108 -116,162 -26,305l40 27 14 54c70,-44 42,-9 137,-12 56,-1 106,-22 143,-53 138,-114 42,-228 65,-267 -88,-41 -68,-99 -238,-103 -74,14 -77,18 -135,49z"/>
   <path class="fil26" d="M16533 11391c155,-66 258,124 114,180 -151,58 -256,-119 -114,-180zm-260 190l0 0 14 15c50,71 -22,-37 11,17 4,6 14,27 19,34 25,44 25,17 32,65 40,8 220,114 353,-22 33,-34 62,-96 52,-168 -12,-92 -63,-86 -85,-160 -45,7 -115,-23 -178,-26 -70,16 -117,40 -154,80 -55,60 -31,114 -64,165z"/>
   <path class="fil26" d="M17473 9405l136 -19c52,-30 100,-61 125,-124 41,-98 2,-122 -14,-202l-30 0c8,68 -4,109 -60,137 -48,24 -114,21 -151,-10 -93,-82 11,-185 150,-173 -35,-39 -21,-2 -52,-46 -67,45 -233,-16 -286,175 -21,73 -1,136 37,182 40,47 71,55 145,80z"/>
   <path class="fil24" d="M11865 4881l845 220c10,-9 11,8 -3,-26 -45,-4 -565,-318 -684,-385 -50,-28 -63,-30 -76,-60l-82 251z"/>
   <path class="fil15" d="M7023 16582c3,-8 101,-275 38,-265 -45,-24 -1,0 -28,-23l-75 -54c-100,50 -125,58 -191,145 -44,58 -104,141 -134,217 101,63 285,26 390,-20z"/>
   <path class="fil8" d="M13037 13379l-21 35c0,168 -244,686 -216,751 35,-32 252,-450 292,-525 46,-84 100,-172 143,-259 48,-94 88,-185 139,-280l-337 278z"/>
   <path class="fil26" d="M1624 6375c-32,-154 205,-141 224,-22 21,137 -200,138 -224,22zm153 274l0 0 127 -27c44,-36 83,-65 96,-136 18,-93 -22,-116 -31,-184 -43,-15 -42,-25 -73,-55 -162,-35 -278,-14 -326,128 -53,157 76,248 207,274z"/>
   <path class="fil12" d="M4043 4230c47,47 177,80 239,89 172,27 318,-79 484,-163 130,-67 123,-42 273,-35 -71,-59 -443,-60 -552,-39 -124,25 -137,33 -223,90 -166,108 -115,78 -221,58z"/>
   <path class="fil26" d="M4781 13194c-10,16 -3,6 -15,24 -2,2 -10,14 -13,17 176,-55 241,82 159,154 -71,62 -247,20 -181,-133l-27 12c-20,89 -40,77 -15,175 2,10 5,18 7,27l0 16c0,2 0,5 0,8 118,78 99,121 344,85 21,-3 16,-3 32,-7 2,-1 7,-1 9,-5 1,-4 6,-2 8,-5 0,0 -12,-8 -17,-12 -17,-16 -10,-10 -18,-20l64 -100c-4,-111 -22,-167 -88,-213 -98,-68 -145,-35 -249,-23z"/>
   <path class="fil27" d="M9010 6223c-88,198 -200,348 -215,600 53,-21 149,-44 205,-38 66,-405 11,-221 163,-578 33,-79 15,-66 0,-78 -46,38 -135,42 -153,94z"/>
   <path class="fil26" d="M6877 14464c0,0 -18,17 -18,17 -13,14 -9,10 -20,25 147,-52 243,53 172,140 -55,69 -213,57 -208,-95 -40,45 -21,80 -49,122 47,50 44,117 109,157 94,58 148,17 237,11 2,-2 5,-9 6,-7l45 -49c23,-28 15,-36 48,-48 7,-204 -50,-305 -269,-290l-26 4 -27 13z"/>
   <path class="fil26" d="M3342 11598c57,-14 128,-29 171,12 36,36 32,105 -7,139 -80,69 -235,21 -178,-138l-36 25c-12,115 -31,192 51,261 110,93 204,22 259,60l23 -45 32 -29c85,-130 61,-186 -15,-297 -40,-19 -71,-38 -129,-50 -88,2 -130,16 -171,62z"/>
   <path class="fil26" d="M2656 11083c-4,22 -3,20 -13,34 105,-34 124,-32 195,37 19,210 -281,175 -209,-22 -85,84 -65,220 15,285 36,28 92,52 155,50 67,-2 101,-38 154,-49 15,-51 37,-62 58,-129 -4,-182 -79,-188 -201,-244l-154 38z"/>
   <path class="fil26" d="M1773 8764c64,3 110,13 139,55 30,45 17,98 -18,124 -86,63 -205,-4 -187,-131l-27 0c-10,67 -47,112 -14,200 26,69 71,89 118,126l121 14c113,-31 208,-105 172,-253 -29,-118 -123,-165 -264,-162l-9 -52 3 49c-4,2 -16,12 -18,14l-16 16z"/>
   <path class="fil28" d="M11524 15047c35,6 6,-9 26,13 -12,68 1,79 -4,128 -6,53 12,-2 -9,28 53,1 14,-5 60,37 17,15 47,38 68,49 58,30 132,25 189,6 -61,-39 -189,-73 -95,-202 38,-52 156,-105 247,-58 -49,-123 -70,-84 -147,-152 -84,0 -148,-1 -209,36 -62,37 -59,67 -126,115z"/>
   <path class="fil8" d="M14965 13194c-42,32 -61,43 0,66 86,-10 128,6 207,9 68,3 128,-6 192,-7 16,-11 -5,-2 31,-15 71,-26 255,-19 333,-45l19 -9c-40,-97 -342,-128 -407,-120 -68,9 -140,36 -200,62 -31,13 -52,25 -88,42 -96,48 -79,21 -87,17z"/>
   <path class="fil8" d="M6248 13826c12,-25 -215,-743 -215,-743l-315 -303c31,94 486,1005 530,1046z"/>
   <path class="fil16" d="M8897 6223c-31,52 -61,80 -97,141 -32,54 -50,103 -76,157 -38,78 -127,254 -134,344 30,32 -20,24 55,7 1,0 45,-15 50,-16 34,-12 71,-23 100,-33 15,-252 127,-402 215,-600 -7,-38 16,-2 -18,-27 -34,10 -59,20 -95,27z"/>
   <path class="fil14" d="M7100 14841c37,27 112,70 164,94 75,33 105,50 171,88 110,64 209,128 321,184 35,-26 -3,-50 -51,-130 -30,-49 -52,-97 -74,-135 -168,-43 -294,-137 -432,-205 -33,12 -25,20 -48,48l-45 49c-1,-2 -4,5 -6,7z"/>
   <path class="fil4" d="M4795 6278c11,59 -7,29 24,71 45,61 115,78 194,54 31,-10 43,-18 61,-32 74,-58 101,-175 21,-247 -40,-35 -19,-16 -64,-30 -79,-24 -52,-29 -110,3l-88 57c-51,52 51,-57 -18,21 -21,25 -13,21 -42,40 30,25 12,6 22,63z"/>
   <path class="fil29" d="M16696 6738c69,43 96,77 149,128 133,129 239,149 309,235 43,53 73,122 117,170 -15,-80 -201,-378 -152,-443 -21,-9 -31,3 -39,0l-33 -163c-7,-62 -10,-18 7,-41l-20 -52c-83,24 -136,132 -158,248 -96,-26 -119,-74 -175,-135l-5 53z"/>
   <path class="fil15" d="M12386 16212c-10,64 -71,76 -35,164 24,57 77,56 98,97 94,-4 282,16 305,-11 52,-99 -69,-165 -127,-204 -102,-70 -125,-71 -241,-46z"/>
   <path class="fil8" d="M3889 12948l314 -6c-4,-20 21,-8 41,-48 -124,-28 -222,-125 -373,-135 -49,-4 -329,26 -359,123 89,42 298,12 377,66z"/>
   <path class="fil29" d="M2289 6439c12,19 9,2 10,35l-20 108c-17,49 17,26 -27,38 -29,187 -141,338 -154,430 37,-38 65,-103 98,-151 53,-80 65,-68 141,-118 50,-33 114,-78 147,-113 49,-52 67,-93 138,-127l12 -72c-45,58 -78,104 -159,141l-32 -74c-25,-81 -50,-127 -130,-168l-24 71z"/>
   <path class="fil30" d="M13140 13065c-15,72 -10,105 -39,169 -22,49 -51,94 -64,145l337 -278c52,-65 257,-299 329,-323l22 -101c-40,15 -241,197 -269,225 -82,79 -170,138 -316,163z"/>
   <path class="fil31" d="M7637 16064l-679 176 75 54c27,23 -17,-1 28,23 23,-52 -10,-11 30,-36 15,-9 21,-5 35,-7 8,25 18,-3 -27,42 11,0 58,-7 60,-7 46,2 19,-9 45,16l564 -171c-8,-8 -4,-26 -67,-18l-220 57c-95,19 -202,62 -294,67 25,-39 -6,-6 24,-26 27,-17 479,-108 516,-132 31,-20 15,-2 28,-31l-53 -10c-29,0 -21,5 -65,3z"/>
   <path class="fil32" d="M8496 3484c45,-43 87,-55 142,-85 1,67 7,88 28,138 -55,-5 -130,-21 -170,-53zm434 13l0 0c89,-184 -203,-173 -235,-100 -68,156 179,215 235,100zm52 -114l0 0c54,14 123,47 154,91 -51,23 -108,48 -172,60 28,-60 41,-77 18,-151zm-550 115l0 0c141,45 210,88 392,83 126,-3 290,-37 360,-110 -28,-99 -240,-180 -380,-161 -130,17 -323,101 -372,188z"/>
   <path class="fil33" d="M15616 11875c58,-31 61,-35 135,-49 13,-98 0,-145 28,-240 26,-89 66,-131 77,-201 -38,-14 -235,52 -260,304 -6,65 -12,121 14,176 1,3 4,7 6,10z"/>
   <path class="fil32" d="M10285 3374c213,-40 182,159 91,187 -178,55 -225,-162 -91,-187zm191 167l0 0c47,-24 100,-41 148,-69 -23,-29 -28,-27 -68,-47 -26,-13 -52,-25 -85,-31 32,79 15,74 5,147zm-465 -57l0 0c15,20 -10,4 29,27l145 41c-17,-44 -34,-89 -19,-144 -60,9 -117,44 -155,76zm-45 0l0 0c139,146 548,133 695,-13 -35,-87 -228,-142 -347,-139 -125,4 -316,61 -348,152z"/>
   <path class="fil12" d="M18841 7412c-37,35 -56,167 -109,284 39,-12 129,-84 181,-119 57,-37 128,-92 191,-110l59 -152 0 -37c-100,46 -201,116 -322,134z"/>
   <path class="fil33" d="M3513 11536c58,12 89,31 129,50 36,-88 9,-259 -26,-337 -32,-72 -130,-135 -213,-163 25,88 55,118 79,208 25,91 11,159 31,242z"/>
   <path class="fil27" d="M9029 6114c64,-152 -64,-86 75,-302 35,-54 141,-207 150,-269 -118,34 -167,134 -259,251 -54,68 -190,352 34,320z"/>
   <path class="fil34" d="M13755 14814l21 8c66,15 105,-4 178,3 107,10 414,157 472,118 -85,-46 -102,-40 -173,-104 -33,-30 -115,-123 -135,-173 116,-44 180,-91 260,-161 -179,91 -383,270 -623,309z"/>
   <path class="fil12" d="M337 7107c34,49 24,83 61,144 1,2 4,6 6,9 25,-17 37,7 76,34 29,21 53,36 85,59 58,40 129,102 175,128 -22,-55 -38,-94 -55,-158 -17,-62 -11,-102 -61,-130 -108,-22 -202,-90 -287,-130l0 44z"/>
   <path class="fil35" d="M11854 15308c103,-44 154,-94 161,-236l-9 -24c-91,-47 -209,6 -247,58 -94,129 34,163 95,202z"/>
   <path class="fil14" d="M17154 6152c47,48 123,59 175,126 45,57 58,147 79,229 30,-11 17,-3 39,-20 26,-22 22,-24 36,-43 -17,-127 -74,-168 -68,-330l-24 -86 -40 70c-11,26 -24,55 -35,91 -35,4 -5,5 -22,-14 -78,-44 -283,-210 -357,-227 -14,26 -10,14 28,44 24,18 46,33 71,48 44,27 105,51 139,81l-21 31z"/>
   <path class="fil32" d="M9818 3216c63,19 203,-102 522,-100 231,1 334,72 519,119 -49,-84 -388,-164 -507,-172 -100,-6 -523,0 -534,153z"/>
   <path class="fil32" d="M8272 3259c52,-9 168,-67 237,-89 96,-31 185,-53 288,-58 108,-5 208,5 301,32 160,45 180,104 252,89 16,-82 -139,-129 -208,-147 -254,-67 -706,12 -870,173z"/>
   <path class="fil36" d="M14969 12545c-6,110 -21,204 -49,306 -29,103 -78,184 -100,280 51,-24 72,-43 107,-83 24,-93 74,-215 107,-317 31,-94 43,-158 3,-258 -19,-48 -10,-55 -63,-46 21,59 21,76 -5,118z"/>
   <path class="fil30" d="M5022 14344c-31,51 -77,106 -112,144 -54,58 -79,58 -149,105 55,36 220,-48 285,-73 144,-56 277,-17 341,-41 -76,-13 -132,-31 -195,-64 -44,-23 -119,-88 -170,-71z"/>
   <path class="fil33" d="M3845 12275c32,57 165,193 223,229 -59,-227 -59,-179 -107,-330 -76,-237 -78,-180 -62,-341 -23,-36 -11,-36 -24,-78l-25 511c0,-2 -2,6 -5,9z"/>
   <path class="fil3" d="M8490 11638c82,27 102,36 168,-23 68,-61 60,-84 59,-194 -59,1 -249,4 -283,21l40 -5c-3,79 -30,144 16,201z"/>
   <path class="fil14" d="M2086 5970l-25 20c-18,-27 -40,-78 -59,-113 -10,-51 17,-15 -22,-41l-23 187 -61 224c31,30 30,40 73,55 13,-76 36,-186 81,-236 45,-50 132,-83 166,-120 -24,-19 -18,8 -24,-34 38,-20 264,-143 210,-156 -73,20 -247,168 -316,214z"/>
   <path class="fil33" d="M15148 12815c70,-45 184,-159 234,-230 -23,-33 -29,-353 -28,-385l-14 0c2,62 -65,254 -88,308 -48,116 -66,172 -104,307z"/>
   <path class="fil21" d="M15752 5098l353 44 -313 -284c-34,56 -59,151 -40,240z"/>
   <path class="fil37" d="M8930 3497c89,-184 -203,-173 -235,-100 -68,156 179,215 235,100z"/>
   <path class="fil21" d="M3217 4939c-7,7 1,3 -9,27l301 -39c-3,-113 5,-151 -34,-239 -41,15 -34,16 -65,55 -56,72 -148,119 -193,196z"/>
   <path class="fil35" d="M16533 11391c-142,61 -37,238 114,180 144,-56 41,-246 -114,-180z"/>
   <path class="fil35" d="M15796 11881c-161,57 -58,230 89,186 150,-46 70,-242 -89,-186z"/>
   <path class="fil35" d="M17690 9060c-18,-27 -23,-34 -61,-46 -139,-12 -243,91 -150,173 37,31 103,34 151,10 56,-28 68,-69 60,-137z"/>
   <path class="fil35" d="M17620 6474c-143,49 -90,231 68,188 153,-42 106,-248 -68,-188z"/>
   <path class="fil35" d="M14447 13588l-30 -25c-147,-70 -265,42 -190,134 58,71 244,74 220,-109z"/>
   <path class="fil37" d="M10285 3374c-134,25 -87,242 91,187 91,-28 122,-227 -91,-187z"/>
   <path class="fil35" d="M4753 13235l-22 21c-66,153 110,195 181,133 82,-72 17,-209 -159,-154z"/>
   <path class="fil35" d="M1624 6375c24,116 245,115 224,-22 -19,-119 -256,-132 -224,22z"/>
   <path class="fil35" d="M1707 8812c-18,127 101,194 187,131 35,-26 48,-79 18,-124 -29,-42 -75,-52 -139,-55 -38,10 -49,16 -66,48z"/>
   <path class="fil35" d="M3342 11598c-20,-3 -15,-7 -14,13 -57,159 98,207 178,138 39,-34 43,-103 7,-139 -43,-41 -114,-26 -171,-12z"/>
   <path class="fil35" d="M6839 14506l-36 45c-5,152 153,164 208,95 71,-87 -25,-192 -172,-140z"/>
   <path class="fil35" d="M2643 11117c-19,0 -14,-5 -14,15 -72,197 228,232 209,22 -71,-69 -90,-71 -195,-37z"/>
   <path class="fil30" d="M10055 15658l524 -128c-115,-146 -450,77 -562,116 17,15 -28,17 38,12z"/>
   <path class="fil30" d="M11404 15089c-52,39 -66,141 -92,202l225 -75c21,-30 3,25 9,-28 5,-49 -8,-60 4,-128 -20,-22 9,-7 -26,-13l-120 42z"/>
   <path class="fil32" d="M8416 3412c88,-53 193,-115 330,-134 250,-33 328,76 424,48 -46,-149 -630,-117 -754,86z"/>
   <path class="fil38" d="M9307 10562c72,104 216,72 257,-39 -20,-42 -45,-59 -80,-78 -46,15 -152,82 -177,117z"/>
   <path class="fil12" d="M14648 3648c15,103 149,200 183,294 66,-8 83,-22 122,-75l-50 3c-53,-76 -172,-172 -249,-253 -12,14 -28,-36 -6,31z"/>
   <path class="fil39" d="M14648 3648c-22,-67 -6,-17 6,-31 77,81 196,177 249,253l50 -3 103 -14 -196 -124c-61,-39 -43,-20 -39,-34 -29,-35 -175,-114 -219,-124 13,41 13,52 46,77z"/>
   <path class="fil32" d="M9962 3355c136,-26 202,-62 365,-61 170,1 210,52 340,89 -58,-73 -254,-127 -340,-130 -91,-4 -224,11 -308,41 -46,16 -42,13 -57,61z"/>
   <path class="fil40" d="M4528 3433l7 11c-52,66 -73,86 -130,143 -24,25 -38,42 -61,68 -32,36 -34,52 -84,61 26,42 43,54 105,73 9,-54 20,-54 52,-100 58,-81 120,-170 155,-269l-44 13z"/>
   <path class="fil41" d="M9419 11521c-183,-241 -279,119 -109,96 51,-7 95,-60 109,-96z"/>
   <path class="fil39" d="M4370 3542c0,23 -198,116 -221,159 45,-5 80,-1 111,15 50,-9 52,-25 84,-61 23,-26 37,-43 61,-68 57,-57 78,-77 130,-143 -56,18 -130,50 -165,98z"/>
   <path class="fil41" d="M8979 11635c46,-5 92,-29 126,-62 -13,-43 -82,-129 -137,-103 -105,50 -39,127 11,165z"/>
   <path class="fil33" d="M15440 12504c56,-41 71,-66 120,-115 69,-69 57,-73 70,-182l-40 -27c-13,12 -9,8 -20,25 -46,64 -102,224 -130,299z"/>
   <path class="fil33" d="M3625 11912c-4,95 12,123 59,175 37,42 71,81 117,119 -27,-63 -41,-113 -64,-172 -12,-30 -24,-57 -36,-81 -1,-3 -19,-41 -21,-44l-23 -26 -32 29z"/>
   <path class="fil38" d="M9391 11685c5,70 50,98 128,77 51,-81 32,-157 -77,-147 -15,17 -32,44 -51,70z"/>
   <path class="fil2" d="M10011 3484c15,20 -10,4 29,27l145 41c-17,-44 -34,-89 -19,-144 -60,9 -117,44 -155,76z"/>
   <path class="fil2" d="M8982 3383c23,74 10,91 -18,151 64,-12 121,-37 172,-60 -31,-44 -100,-77 -154,-91z"/>
   <path class="fil2" d="M8496 3484c40,32 115,48 170,53 -21,-50 -27,-71 -28,-138 -55,30 -97,42 -142,85z"/>
   <path class="fil38" d="M10587 11703l12 1 52 0c25,-37 77,-58 22,-115 -16,-12 8,-11 -21,-9l-97 58c10,35 19,44 32,65z"/>
   <path class="fil2" d="M10476 3541c47,-24 100,-41 148,-69 -23,-29 -28,-27 -68,-47 -26,-13 -52,-25 -85,-31 32,79 15,74 5,147z"/>
   <path class="fil32" d="M9327 4258c55,52 35,2 112,24 42,12 40,29 93,27 -16,-74 -171,-84 -205,-51z"/>
   <path class="fil32" d="M9289 4296c30,-48 2,-26 3,-86 0,-37 16,-51 26,-89 -56,23 -102,147 -29,175z"/>
   <path class="fil42" d="M8761 11495l50 5c29,-41 23,-23 24,-68l-59 -7 -15 70z"/>
   <g>
    <path class="fil32" d="M5124 7287l-4 -1c267,-26 489,-137 574,-377 51,-145 -17,-183 -15,-280 180,-22 272,-80 340,-210 195,-366 -63,-829 -371,-847 -82,-5 -181,32 -220,28 -44,-177 -70,-256 -223,-311 -431,-158 -1058,141 -898,562 -160,63 -264,65 -346,195 -138,219 -70,664 172,809 200,119 272,40 449,2 2,148 35,210 114,290 87,90 146,89 212,122l119 19 97 -1zm9212 -78l0 0c161,-79 258,-166 267,-395 167,54 268,109 442,5 104,-62 179,-173 222,-327 92,-330 -21,-629 -389,-670 50,-190 33,-267 -88,-387 -217,-215 -526,-298 -805,-185 -152,62 -202,137 -225,318 -188,-32 -262,-75 -424,45 -231,172 -305,509 -164,778 64,123 174,178 343,200 -30,101 -62,152 -23,273 101,312 363,342 612,385l120 -16 112 -24zm-543 -1588l0 0c16,-186 62,-278 211,-336 271,-107 595,-14 784,203 118,135 101,228 13,366 163,17 324,67 385,169 144,238 55,671 -203,785 -204,89 -361,-49 -422,-71 5,216 -29,302 -163,393 -229,154 -657,67 -808,-158 -155,-232 -28,-316 -21,-420 -168,-11 -295,-51 -358,-172 -136,-261 -72,-585 169,-748 188,-128 331,-13 413,-11zm-9408 275l0 0c-28,-59 -82,-112 -69,-207 32,-238 483,-529 876,-360 143,62 183,139 200,334 159,-28 245,-112 417,8 230,161 308,490 166,745 -70,127 -183,170 -358,173 7,100 62,109 52,238 -38,478 -1091,663 -1044,-53 -127,65 -242,153 -428,68 -340,-155 -443,-953 188,-946z"/>
    <path id="1" class="fil43" d="M5120 7303l0 -34 0 0 4 2 0 33 -4 -1zm0 0l-78 -26 78 -8 0 34zm575 -379l0 0 -8 22 -9 22 -11 21 -10 20 -12 19 -12 19 -13 18 -13 17 -15 16 -15 16 -15 15 -16 14 -17 14 -17 13 -18 12 -19 12 -19 11 -19 11 -20 10 -20 9 -21 9 -22 8 -21 7 -23 7 -22 7 -23 6 -23 5 -24 5 -24 4 -24 4 -25 3 -25 3 0 -34 25 -2 24 -4 25 -3 24 -5 23 -4 24 -6 22 -5 23 -7 22 -7 22 -7 21 -8 21 -9 20 -9 20 -10 20 -11 19 -11 18 -11 18 -13 17 -13 16 -13 17 -15 15 -15 15 -15 14 -16 13 -17 13 -18 12 -18 11 -19 11 -20 10 -20 9 -21 8 -22 0 0 3 29zm-16 -278l4 -16 0 6 0 5 1 6 0 6 1 7 2 7 1 6 2 7 2 7 2 7 2 7 2 7 3 8 2 7 2 7 2 8 2 8 2 9 2 9 1 10 1 10 1 12 0 12 0 13 -1 13 -1 12 -2 13 -2 12 -3 13 -3 13 -4 13 -5 14 -3 -29 4 -13 4 -12 3 -11 2 -11 2 -10 1 -8 1 -8 0 -7 0 -6 0 -6 0 -6 -1 -6 -1 -6 -1 -7 -2 -7 -1 -7 -2 -7 -2 -7 -2 -7 -2 -7 -3 -7 -2 -8 -2 -7 -2 -8 -2 -7 -2 -9 -2 -8 -1 -10 -2 -10 -1 -10 0 -12 0 -13 3 -15 0 34zm-3 -19l0 -14 3 -1 -3 15zm344 -192l0 0 -6 12 -7 12 -7 11 -7 11 -7 10 -7 10 -8 10 -8 9 -8 9 -8 8 -9 8 -9 8 -9 8 -9 7 -10 6 -10 7 -10 6 -11 6 -11 5 -11 6 -12 4 -12 5 -12 4 -13 5 -13 3 -14 4 -14 3 -15 3 -15 3 -16 3 -16 2 -17 3 0 -34 17 -2 16 -2 15 -3 16 -3 14 -3 14 -3 14 -4 13 -4 13 -4 13 -4 12 -5 11 -5 12 -5 11 -5 10 -6 10 -6 10 -7 10 -6 9 -7 9 -8 9 -7 8 -8 9 -9 8 -9 7 -9 8 -9 7 -10 7 -10 7 -11 7 -11 6 -11 7 -12 0 0 2 31zm-371 -880l0 0 28 3 29 6 28 8 27 10 27 13 26 14 26 17 24 18 24 20 23 22 22 24 20 25 20 27 18 28 17 29 16 31 14 31 12 33 12 34 9 34 8 36 5 37 4 39 2 40 0 40 -3 40 -5 39 -8 38 -10 37 -12 36 -14 36 -18 35 -2 -31 17 -34 14 -35 11 -34 9 -35 7 -34 5 -33 2 -32 0 -31 -1 -31 -3 -32 -6 -33 -7 -32 -9 -33 -10 -32 -12 -32 -14 -31 -15 -30 -17 -28 -18 -28 -20 -26 -20 -25 -22 -24 -22 -22 -24 -20 -24 -18 -26 -17 -26 -14 -27 -13 -27 -10 -28 -8 -28 -5 -29 -3 0 0 1 -34zm-219 32l-2 -4 3 0 5 0 4 0 5 0 5 -1 5 0 6 -1 6 -1 6 -1 6 -1 7 -2 7 -1 7 -1 7 -2 7 -1 7 -2 8 -1 8 -2 7 -1 8 -2 8 -1 8 -1 8 -2 8 -1 8 -1 9 0 8 -1 8 -1 8 0 8 0 8 0 8 0 -1 34 -7 -1 -8 0 -8 0 -8 1 -8 0 -8 1 -8 1 -8 1 -8 1 -9 1 -7 1 -8 2 -8 1 -8 1 -8 2 -7 1 -8 2 -7 1 -7 2 -7 1 -7 2 -6 1 -7 1 -6 1 -6 1 -6 1 -5 1 -5 0 -5 0 -4 1 -5 -1 -3 0 -3 -4 5 -25zm-2 29l-2 0 -1 -4 3 4zm-223 -344l0 0 14 5 14 6 12 5 12 6 11 6 11 6 10 7 10 6 9 7 8 8 8 7 8 8 7 8 7 8 6 9 6 9 6 9 5 10 6 11 5 10 4 11 5 12 4 12 5 12 4 13 4 14 4 13 4 15 4 14 4 16 4 15 4 17 -5 25 -4 -16 -4 -16 -4 -15 -3 -14 -4 -14 -4 -13 -4 -13 -4 -13 -4 -11 -4 -12 -5 -11 -4 -11 -5 -10 -5 -10 -5 -9 -6 -9 -6 -9 -6 -9 -7 -8 -7 -8 -7 -7 -8 -8 -9 -7 -8 -7 -10 -6 -10 -7 -10 -6 -12 -6 -11 -6 -13 -5 -13 -6 -14 -5 0 0 0 -33zm-899 562l-1 32 -13 -41 -9 -41 -5 -44 0 -45 5 -41 8 -38 12 -35 15 -33 18 -31 21 -31 23 -28 26 -28 29 -25 31 -25 33 -22 35 -21 37 -20 38 -17 39 -16 41 -14 42 -12 42 -10 44 -8 43 -6 44 -3 44 -2 44 1 44 4 44 5 42 9 42 11 41 13 0 33 -41 -13 -42 -11 -43 -8 -43 -6 -44 -3 -44 -1 -44 1 -43 4 -44 5 -43 8 -43 10 -41 12 -41 14 -40 16 -38 17 -36 20 -35 21 -33 22 -31 24 -28 26 -26 27 -24 29 -20 29 -18 31 -14 32 -11 32 -7 31 -3 30 0 28 3 32 8 35 12 37 -1 32 -1 -34zm2 2l10 27 -11 5 1 -32zm-349 195l0 0 8 -12 8 -12 8 -10 9 -10 8 -9 9 -9 9 -8 8 -8 10 -7 9 -7 9 -6 10 -6 10 -5 10 -5 10 -5 10 -5 11 -5 11 -4 11 -4 12 -4 11 -4 12 -4 12 -5 13 -4 12 -4 13 -4 14 -5 13 -4 14 -5 14 -5 15 -6 14 -6 1 34 -15 5 -14 6 -14 5 -14 5 -14 5 -13 4 -13 4 -13 5 -12 4 -12 4 -12 4 -12 4 -11 4 -11 4 -11 5 -11 4 -10 5 -11 5 -10 5 -9 5 -10 6 -9 6 -9 7 -9 7 -9 8 -9 8 -8 8 -9 9 -8 10 -8 10 -8 11 -7 12 0 0 -3 -31zm174 840l0 0 -22 -14 -22 -16 -20 -18 -19 -19 -18 -21 -17 -22 -16 -23 -15 -24 -14 -25 -13 -26 -12 -27 -11 -28 -9 -29 -9 -29 -8 -30 -6 -30 -5 -31 -5 -32 -3 -31 -2 -33 0 -32 0 -32 2 -32 3 -31 5 -29 5 -29 7 -28 8 -26 9 -25 10 -24 11 -23 12 -21 3 31 -12 21 -11 22 -10 23 -9 24 -7 25 -6 25 -5 25 -4 26 -2 26 -2 26 0 26 0 26 2 27 3 27 3 28 5 28 6 28 7 29 8 27 10 28 10 27 12 26 12 26 14 25 15 24 16 22 17 22 18 20 19 19 20 18 21 16 22 14 0 0 -1 33zm446 -13l3 15 -16 4 -16 4 -15 4 -15 4 -14 4 -14 4 -13 5 -13 4 -13 4 -13 4 -12 3 -13 4 -12 3 -12 3 -12 2 -13 2 -12 2 -12 1 -13 0 -13 0 -13 0 -13 -2 -13 -2 -14 -3 -15 -3 -15 -5 -15 -5 -16 -7 -16 -7 -17 -9 -18 -9 -18 -11 1 -33 18 11 18 9 17 9 16 7 16 6 15 6 15 4 14 4 14 3 13 2 14 1 12 1 13 0 13 0 12 -1 12 -2 12 -2 12 -2 13 -3 12 -3 12 -4 13 -3 12 -4 13 -4 13 -5 14 -4 14 -4 14 -4 15 -4 15 -4 16 -4 16 -4 4 16 -7 2zm3 -18l3 -1 1 17 -4 -16zm113 324l0 0 -7 -8 -7 -7 -7 -8 -6 -7 -7 -7 -6 -8 -5 -7 -6 -7 -5 -8 -5 -7 -5 -8 -4 -7 -5 -8 -4 -8 -4 -8 -3 -9 -4 -8 -3 -9 -3 -10 -3 -9 -3 -10 -2 -11 -2 -10 -2 -11 -2 -12 -1 -12 -2 -13 -1 -13 -1 -13 -1 -14 0 -14 0 -15 7 -2 0 12 0 12 1 12 1 11 1 10 1 10 1 10 1 10 2 9 2 9 2 9 2 9 3 9 3 8 3 8 3 8 3 8 4 8 4 8 4 7 4 8 5 7 5 8 5 7 5 7 6 7 6 7 6 8 7 7 6 7 7 8 7 7 0 0 -1 33zm212 122l0 0 -6 -3 -6 -3 -6 -3 -6 -2 -6 -3 -6 -2 -6 -2 -6 -2 -6 -3 -6 -2 -6 -2 -6 -2 -6 -3 -7 -2 -6 -3 -6 -3 -7 -3 -6 -3 -7 -3 -6 -4 -7 -3 -7 -5 -7 -4 -7 -5 -7 -5 -7 -5 -8 -6 -7 -6 -8 -7 -8 -7 -8 -8 -8 -8 1 -33 9 8 8 8 7 7 8 7 7 6 8 6 7 5 7 5 7 5 7 4 7 4 7 4 6 4 7 3 6 3 6 3 7 3 6 2 6 3 6 2 6 3 7 2 6 2 6 2 6 3 6 2 6 2 6 3 6 2 6 3 6 3 6 3 0 0 -1 33zm0 0l0 0 0 0 0 0zm120 -14l0 33 0 0 -120 -19 1 -33 119 19zm0 33l0 0 0 0 0 0zm97 -34l0 0 0 33 -97 1 0 -33 97 -1zm0 0l98 32 -98 1 0 -33zm9212 -62l0 0 0 0 0 0 -1 -17 1 17zm0 16l0 0 0 1 0 -1zm266 -395l4 -13 -1 23 -2 22 -2 21 -3 20 -3 20 -4 18 -4 17 -5 17 -5 16 -6 15 -6 14 -7 14 -7 13 -7 13 -8 12 -9 12 -8 11 -10 11 -9 10 -11 10 -10 10 -11 9 -11 9 -12 9 -12 8 -13 8 -13 8 -13 8 -14 8 -14 8 -15 7 -15 7 -1 -33 15 -7 15 -8 14 -7 14 -8 13 -8 13 -8 13 -8 12 -8 11 -9 12 -9 11 -9 10 -10 10 -9 10 -11 9 -10 8 -11 9 -12 7 -11 8 -13 7 -12 6 -14 6 -13 5 -15 5 -14 4 -16 4 -15 4 -17 2 -16 3 -18 2 -18 1 -18 1 -19 4 -14 -1 33zm-3 -19l1 -15 3 1 -4 14zm447 24l0 0 -17 10 -15 8 -16 8 -15 6 -14 6 -15 5 -14 5 -14 3 -13 3 -14 2 -13 2 -13 1 -13 0 -13 0 -13 -1 -13 -1 -12 -1 -13 -2 -13 -3 -13 -3 -13 -3 -13 -4 -13 -3 -13 -4 -14 -5 -13 -4 -14 -5 -15 -5 -14 -5 -15 -4 -15 -6 -16 -5 1 -33 15 5 16 5 14 5 15 5 14 5 14 5 14 4 13 4 14 4 13 4 13 4 13 3 12 3 13 2 13 2 13 2 12 1 13 1 13 0 13 0 13 -1 13 -2 13 -2 14 -3 14 -4 14 -4 14 -5 15 -6 15 -7 15 -7 16 -8 16 -10 0 0 1 33zm223 -330l0 0 -4 15 -5 14 -4 14 -5 14 -5 14 -5 13 -5 13 -6 12 -5 13 -6 12 -6 12 -6 11 -7 12 -6 11 -7 10 -7 11 -7 10 -7 10 -8 9 -7 10 -8 9 -8 9 -8 8 -9 8 -8 8 -9 8 -9 7 -9 8 -9 6 -9 7 -10 6 -9 6 -1 -33 9 -6 10 -6 9 -6 9 -7 9 -7 9 -8 9 -7 8 -8 8 -8 8 -9 8 -9 8 -8 7 -10 8 -9 7 -10 7 -10 7 -10 6 -11 7 -11 6 -11 6 -11 6 -12 6 -12 5 -12 6 -12 5 -13 5 -12 4 -14 5 -13 4 -13 5 -14 4 -14 0 0 4 26zm-389 -670l-2 -30 34 5 32 6 31 8 29 9 28 10 27 11 25 13 23 14 23 16 20 16 20 17 18 19 16 20 16 20 14 22 12 22 11 24 10 24 9 26 7 26 7 28 4 28 4 30 2 32 1 31 -1 33 -2 32 -3 32 -5 32 -6 31 -7 32 -8 31 -4 -26 8 -30 6 -30 5 -29 5 -28 2 -28 2 -26 1 -26 -1 -24 -2 -25 -2 -25 -5 -25 -5 -24 -7 -25 -8 -24 -10 -23 -10 -23 -13 -22 -13 -21 -15 -20 -17 -20 -18 -18 -19 -17 -20 -17 -23 -15 -23 -14 -25 -12 -26 -12 -28 -10 -29 -9 -31 -8 -32 -6 -34 -4 -2 -30 4 26zm-2 4l-10 -1 8 -29 2 30zm-87 -421l0 0 11 12 10 11 10 10 10 11 8 10 8 11 8 10 7 10 7 11 6 10 5 10 5 11 4 11 4 11 4 11 3 12 2 12 2 14 2 14 1 14 0 16 0 15 -1 15 -1 15 -2 16 -2 15 -3 15 -3 16 -3 16 -4 17 -4 17 -5 18 -4 -26 4 -17 4 -17 4 -16 3 -15 3 -14 2 -14 2 -13 1 -12 1 -11 1 -10 0 -10 0 -9 -1 -9 -1 -9 -1 -9 -2 -10 -3 -9 -3 -10 -3 -10 -4 -10 -5 -10 -5 -10 -6 -10 -6 -10 -7 -10 -7 -10 -8 -10 -9 -11 -9 -10 -10 -11 -10 -11 -11 -11 0 0 1 -33zm-807 -184l0 0 27 -10 26 -9 27 -8 26 -7 27 -5 27 -5 27 -3 27 -3 27 -1 27 0 26 1 27 1 27 3 26 4 27 5 26 6 26 6 26 8 26 9 25 9 25 11 25 11 24 12 25 14 23 14 24 15 23 15 22 17 22 17 22 19 21 19 21 19 -1 33 -21 -20 -21 -19 -22 -18 -22 -17 -22 -17 -23 -15 -24 -15 -23 -14 -24 -13 -25 -13 -25 -11 -25 -11 -25 -9 -25 -9 -26 -7 -26 -7 -26 -6 -27 -5 -26 -4 -27 -2 -27 -2 -26 -1 -27 0 -27 2 -27 2 -27 3 -26 5 -27 5 -27 7 -26 8 -27 9 -26 10 0 0 -1 -33zm-224 318l-3 7 2 -17 3 -17 2 -16 3 -15 4 -15 3 -15 4 -14 4 -13 4 -13 4 -12 5 -11 5 -12 5 -10 6 -11 6 -10 6 -9 7 -9 7 -9 8 -9 7 -8 9 -8 9 -7 9 -8 9 -7 11 -7 10 -6 11 -7 12 -6 12 -6 13 -6 13 -6 14 -6 1 33 -14 6 -13 6 -13 6 -12 6 -12 6 -11 7 -10 6 -11 7 -9 7 -9 8 -9 7 -8 8 -8 8 -7 8 -7 9 -7 9 -6 9 -6 9 -5 10 -5 11 -5 10 -5 11 -4 12 -4 12 -3 12 -4 13 -3 13 -3 14 -2 14 -3 15 -2 15 -2 16 -3 8 0 -33zm3 25l-1 8 -2 0 3 -8zm-427 20l0 0 15 -11 14 -10 14 -9 14 -8 13 -7 13 -7 13 -6 12 -5 12 -4 12 -4 12 -3 12 -2 11 -2 12 -1 12 -1 11 0 12 0 12 1 12 1 12 1 12 2 13 2 13 2 13 2 14 3 14 3 14 2 15 3 16 3 16 3 17 4 17 3 0 33 -18 -3 -16 -3 -16 -3 -16 -3 -15 -3 -14 -3 -14 -3 -14 -3 -13 -2 -13 -2 -13 -2 -12 -2 -12 -1 -12 -1 -12 -1 -12 0 -11 1 -12 0 -11 2 -12 1 -12 3 -11 3 -12 3 -12 5 -13 5 -12 5 -13 7 -13 7 -14 8 -14 9 -14 10 -15 11 0 0 -1 -33zm-165 810l0 0 -13 -26 -11 -26 -11 -27 -9 -27 -8 -27 -6 -28 -6 -28 -4 -29 -3 -30 -2 -30 -1 -30 1 -30 2 -30 3 -29 4 -29 5 -27 7 -27 7 -27 8 -26 10 -25 10 -25 12 -24 12 -23 14 -23 15 -23 15 -21 17 -21 17 -20 19 -20 19 -18 20 -18 22 -16 1 33 -22 16 -20 18 -19 18 -18 19 -18 20 -16 21 -15 21 -15 22 -13 23 -12 23 -12 23 -10 24 -9 25 -8 25 -7 24 -6 25 -5 25 -3 25 -3 24 -1 24 -1 24 1 24 1 24 3 25 4 25 5 25 6 26 7 26 9 26 10 25 11 26 13 25 0 0 -3 31zm342 170l2 30 -15 -2 -16 -2 -15 -3 -15 -2 -14 -3 -14 -4 -14 -3 -13 -4 -13 -4 -13 -4 -12 -4 -12 -5 -12 -5 -11 -5 -11 -6 -11 -6 -11 -6 -10 -6 -10 -7 -9 -7 -10 -7 -9 -8 -8 -8 -9 -9 -8 -8 -8 -9 -7 -10 -8 -10 -7 -10 -6 -11 -7 -11 -6 -11 3 -31 6 11 6 11 7 10 6 10 8 10 7 9 8 9 8 9 8 8 9 8 9 8 9 7 9 7 10 7 10 6 11 6 10 6 11 6 12 5 11 5 12 5 13 4 12 4 13 4 14 4 13 3 14 3 15 3 14 3 15 3 16 2 16 2 1 30 -4 -27zm3 -3l10 1 -9 29 -1 -30zm-26 304l0 0 -3 -12 -4 -11 -2 -11 -3 -10 -2 -11 -2 -11 -1 -10 -1 -11 -1 -11 0 -11 0 -11 0 -11 1 -10 1 -9 1 -10 1 -8 2 -9 1 -8 2 -8 2 -8 3 -8 2 -8 2 -8 3 -8 2 -8 3 -8 3 -8 2 -8 3 -9 3 -9 3 -9 2 -9 4 27 -2 10 -3 9 -3 9 -3 9 -3 8 -2 8 -3 8 -2 8 -3 8 -2 7 -2 8 -2 7 -2 7 -2 7 -1 7 -1 7 -1 6 -1 6 -1 6 0 6 0 5 0 6 0 6 0 6 1 7 1 8 1 8 2 9 2 9 3 10 3 10 3 11 0 0 -4 28zm614 388l-1 0 -23 -4 -23 -4 -24 -4 -23 -4 -24 -4 -23 -5 -23 -5 -23 -5 -23 -5 -23 -6 -22 -6 -22 -7 -22 -7 -21 -8 -21 -9 -21 -9 -20 -10 -20 -11 -20 -12 -18 -13 -19 -14 -17 -15 -17 -16 -17 -17 -15 -19 -15 -19 -15 -22 -13 -22 -13 -24 -12 -26 -11 -27 -10 -29 4 -28 10 28 10 26 12 25 12 24 14 22 14 21 14 19 16 18 16 17 17 16 18 15 18 14 18 13 20 12 19 11 21 10 20 9 21 9 22 8 21 7 23 7 22 6 22 6 23 5 23 5 23 5 24 4 23 5 23 4 24 4 23 4 24 4 -1 0 1 33zm0 0l0 0 -1 0 1 0zm120 -49l0 33 0 0 -120 16 -1 -33 121 -16zm0 33l0 0 0 0 0 0zm111 -58l1 33 0 1 -112 24 0 -33 111 -25zm1 33l0 0 0 1 0 -1zm-543 -1604l0 0 0 0 0 0 -3 -6 3 6zm4 6l-1 11 -3 0 4 -11zm208 -326l0 0 -14 6 -13 6 -13 6 -12 6 -11 6 -11 7 -10 7 -10 7 -9 8 -9 8 -8 8 -8 8 -7 9 -7 9 -7 9 -6 10 -6 10 -5 10 -5 11 -5 11 -4 12 -4 11 -4 13 -3 12 -3 13 -3 13 -2 14 -2 14 -2 15 -2 15 -2 16 -1 16 -7 -12 2 -18 2 -17 2 -17 2 -17 3 -16 2 -15 3 -15 4 -14 3 -14 4 -13 4 -13 5 -12 5 -12 5 -11 6 -11 6 -10 6 -10 7 -10 7 -9 7 -9 8 -9 9 -8 9 -8 9 -8 10 -7 10 -7 11 -7 12 -6 12 -7 12 -6 13 -5 14 -6 0 0 1 33zm782 203l0 0 -18 -20 -19 -19 -19 -18 -20 -18 -21 -17 -22 -16 -22 -15 -22 -15 -24 -13 -23 -13 -24 -12 -25 -11 -25 -11 -25 -9 -25 -8 -26 -8 -26 -6 -27 -6 -26 -4 -26 -4 -27 -2 -27 -2 -27 0 -26 0 -27 2 -27 3 -26 3 -27 5 -26 6 -26 7 -26 9 -25 9 -1 -33 26 -9 26 -9 26 -7 26 -6 26 -5 27 -4 27 -2 27 -2 26 0 27 0 27 2 27 2 26 4 27 4 26 6 26 6 26 8 26 8 25 9 25 11 24 11 25 12 23 12 23 14 23 15 22 15 22 16 21 17 20 18 20 19 19 19 18 20 0 0 -2 32zm14 366l-1 -32 8 -13 7 -12 7 -12 7 -12 6 -12 6 -12 5 -11 5 -11 4 -11 3 -11 3 -10 3 -10 2 -9 1 -9 1 -7 0 -7 0 -6 -1 -7 -1 -8 -1 -9 -3 -10 -3 -10 -4 -10 -4 -11 -6 -11 -6 -11 -6 -11 -8 -12 -8 -12 -9 -12 -10 -12 -11 -13 2 -32 11 13 10 12 9 12 8 12 8 12 7 12 6 11 6 12 4 11 5 12 3 12 3 12 3 13 2 13 1 15 0 15 -1 15 -1 14 -2 13 -2 12 -3 12 -4 12 -4 12 -4 11 -5 12 -5 12 -6 12 -7 12 -6 12 -8 12 -7 13 -8 13 -1 -33 0 33zm0 0l-21 -2 20 -30 1 32zm384 168l0 0 -6 -9 -6 -9 -7 -8 -8 -9 -8 -8 -9 -8 -9 -7 -9 -8 -10 -7 -11 -7 -11 -6 -11 -6 -11 -6 -12 -6 -13 -6 -12 -5 -13 -5 -14 -5 -13 -4 -14 -4 -14 -4 -14 -4 -14 -4 -15 -3 -15 -3 -15 -3 -14 -3 -16 -3 -15 -2 -15 -2 -15 -2 -15 -2 0 -33 15 2 15 2 16 2 15 2 15 3 15 2 15 3 14 4 15 3 14 4 15 3 14 4 13 5 14 4 13 5 13 5 13 5 12 6 12 6 12 6 11 6 11 6 11 7 10 7 10 8 9 8 9 7 8 9 8 8 7 9 6 9 7 10 0 0 -3 31zm-202 753l0 0 23 -11 23 -14 21 -15 21 -16 19 -18 19 -20 17 -20 17 -22 15 -23 14 -24 13 -25 12 -26 11 -26 9 -27 9 -27 7 -28 6 -27 5 -28 3 -27 3 -27 1 -26 0 -25 -1 -26 -2 -26 -3 -26 -5 -26 -5 -26 -8 -25 -8 -25 -10 -24 -11 -24 -13 -23 3 -31 13 23 11 25 10 25 9 26 8 28 6 28 6 30 3 31 3 31 1 32 0 33 -2 32 -3 32 -4 31 -5 31 -7 29 -7 30 -9 28 -10 28 -11 27 -12 26 -14 26 -14 24 -15 24 -17 22 -17 21 -19 19 -20 18 -20 17 -22 15 -23 14 -24 11 0 0 0 -33zm-426 -52l4 -19 6 3 6 3 8 3 7 4 9 5 8 5 9 5 10 5 10 6 11 5 11 6 12 6 12 6 12 5 13 5 14 6 13 4 15 5 14 3 15 4 15 3 16 2 16 1 17 1 16 0 18 -1 17 -2 18 -3 18 -5 18 -5 19 -6 19 -8 0 33 -19 8 -18 6 -19 6 -18 4 -18 3 -17 2 -17 1 -17 0 -17 -1 -16 -1 -16 -2 -15 -3 -15 -3 -15 -4 -14 -5 -14 -4 -13 -5 -13 -6 -13 -5 -12 -6 -12 -6 -11 -5 -10 -6 -11 -6 -9 -5 -10 -5 -8 -5 -8 -5 -8 -4 -7 -3 -7 -3 -6 -3 4 -18 -7 4zm0 0l0 -20 4 1 -4 19zm-159 374l0 0 12 -8 12 -9 11 -8 10 -9 10 -8 10 -9 9 -9 8 -9 8 -9 7 -9 7 -9 7 -10 6 -10 5 -10 5 -11 5 -10 4 -11 4 -12 4 -11 3 -12 2 -12 3 -13 2 -13 1 -13 2 -14 1 -14 1 -15 0 -16 0 -17 1 -17 -1 -18 0 -19 7 -4 0 20 1 21 -1 19 0 19 -1 19 -1 18 -1 17 -2 17 -2 16 -2 15 -3 15 -3 14 -3 13 -4 13 -4 12 -5 12 -5 12 -5 11 -6 10 -6 10 -7 10 -7 10 -7 10 -8 9 -9 9 -9 9 -9 8 -10 9 -11 9 -11 8 -12 9 -12 8 0 0 -1 -33zm-807 -157l0 0 15 21 17 20 17 19 20 18 20 17 22 16 22 16 24 14 25 14 26 12 26 12 27 10 27 10 29 8 28 7 29 7 29 5 29 4 29 3 29 2 30 0 28 -1 29 -1 28 -4 28 -4 27 -6 27 -7 26 -8 25 -10 24 -11 23 -12 22 -14 1 33 -22 14 -24 12 -24 11 -25 10 -26 9 -27 7 -27 5 -28 5 -28 3 -29 2 -28 0 -30 0 -29 -2 -29 -3 -29 -4 -29 -5 -29 -6 -29 -8 -28 -8 -28 -10 -27 -10 -26 -12 -26 -12 -25 -14 -23 -14 -23 -16 -22 -16 -21 -18 -19 -18 -18 -19 -17 -20 -15 -21 0 0 2 -32zm-22 -420l3 21 -1 14 -2 12 -3 11 -3 10 -3 10 -3 10 -4 10 -4 10 -4 10 -4 10 -4 10 -4 10 -3 10 -3 11 -3 10 -3 11 -2 10 -1 10 -1 10 0 9 0 9 1 11 2 12 3 14 4 15 5 16 6 17 8 18 9 18 11 20 12 20 13 21 -2 32 -14 -21 -12 -21 -11 -20 -9 -19 -8 -19 -7 -18 -5 -17 -5 -17 -3 -18 -3 -17 -2 -18 0 -18 0 -18 2 -16 2 -15 2 -14 3 -12 4 -12 3 -12 4 -11 4 -10 4 -11 4 -10 4 -10 4 -9 3 -10 3 -9 3 -9 3 -9 2 -8 1 -7 0 -5 4 21 0 -33zm0 0l4 0 -1 21 -3 -21zm-357 -171l0 0 6 10 7 11 6 10 7 10 8 9 8 9 8 8 8 8 9 8 10 7 9 7 10 6 10 6 11 6 11 6 11 5 11 5 12 4 12 4 12 4 13 4 13 3 13 3 14 3 14 3 14 2 14 2 15 2 15 2 15 1 15 2 16 1 0 33 -16 -1 -16 -1 -15 -2 -15 -2 -14 -2 -15 -2 -14 -2 -13 -3 -14 -2 -13 -4 -13 -3 -13 -4 -12 -3 -13 -5 -11 -4 -12 -5 -11 -5 -11 -6 -11 -5 -10 -7 -10 -6 -10 -7 -9 -7 -9 -8 -8 -8 -9 -9 -8 -9 -7 -9 -8 -10 -7 -10 -6 -11 -6 -12 0 0 2 -30zm168 -717l0 0 -22 16 -21 16 -20 18 -18 18 -18 19 -17 20 -15 20 -15 21 -14 22 -12 22 -11 23 -10 23 -10 24 -8 23 -6 24 -6 24 -5 24 -3 24 -3 23 -1 23 -1 22 1 23 2 23 2 24 4 24 5 25 6 25 7 25 9 25 9 25 11 24 12 25 -2 30 -13 -25 -11 -25 -10 -25 -8 -27 -8 -26 -7 -27 -5 -27 -5 -28 -3 -29 -2 -29 -1 -29 1 -29 2 -29 3 -29 4 -27 5 -27 6 -26 8 -25 8 -25 9 -25 11 -23 11 -24 13 -22 14 -22 15 -22 15 -20 17 -20 18 -19 19 -19 20 -17 21 -17 22 -16 0 0 1 33zm417 -21l-4 11 -7 -1 -9 -1 -8 -2 -9 -2 -10 -2 -9 -3 -10 -3 -11 -4 -10 -3 -11 -4 -12 -3 -11 -4 -12 -3 -12 -3 -13 -3 -13 -3 -13 -2 -14 -2 -13 -1 -14 -1 -15 0 -15 1 -15 1 -15 2 -15 3 -16 5 -16 5 -17 6 -16 7 -17 9 -17 10 -18 11 -1 -33 18 -11 17 -10 17 -9 17 -7 16 -7 16 -5 16 -4 16 -3 15 -2 15 -2 15 0 15 0 14 1 14 1 13 2 13 2 13 3 13 2 12 4 12 3 12 4 11 3 11 4 11 3 10 3 10 4 10 2 9 3 9 2 8 2 9 1 8 0 -4 11 7 12zm0 0l-1 11 -3 0 4 -11zm-9412 269l0 0 0 0 0 0 -2 16 2 -16zm1 -15l15 32 -16 0 1 -32zm-67 -183l0 0 -1 7 0 6 -1 5 0 5 1 5 0 5 1 5 1 6 1 6 2 6 1 6 2 7 3 6 2 6 3 6 2 6 3 6 3 6 3 6 3 5 4 6 3 6 3 5 3 6 4 5 3 6 3 5 3 6 4 5 3 6 2 6 3 5 -3 31 -2 -6 -3 -5 -3 -6 -3 -5 -3 -5 -3 -6 -4 -5 -3 -6 -3 -5 -3 -6 -4 -6 -3 -6 -3 -5 -3 -6 -4 -6 -3 -7 -2 -6 -3 -6 -3 -7 -2 -7 -3 -7 -2 -8 -2 -7 -1 -9 -2 -9 -1 -9 -1 -10 -1 -11 0 -12 1 -11 1 -11 1 -11 0 0 6 18zm873 -352l0 0 -37 -15 -38 -12 -37 -9 -37 -7 -38 -5 -37 -2 -37 0 -37 1 -37 4 -36 5 -35 8 -35 9 -35 10 -33 12 -33 13 -31 15 -31 16 -29 17 -28 18 -27 19 -25 19 -24 20 -22 21 -21 22 -19 22 -17 22 -15 22 -13 23 -11 22 -8 22 -7 21 -3 19 -6 -18 5 -26 7 -24 9 -24 11 -23 14 -23 15 -23 17 -22 19 -23 21 -21 23 -21 24 -21 25 -19 27 -19 28 -18 30 -17 30 -16 32 -15 32 -13 34 -12 34 -11 35 -9 36 -7 36 -5 37 -4 37 -2 37 1 37 2 38 5 37 7 38 9 37 12 37 15 0 0 0 33zm200 334l-3 -11 -2 -17 -2 -16 -1 -16 -2 -15 -3 -15 -2 -14 -3 -13 -3 -13 -3 -13 -3 -12 -4 -11 -4 -11 -4 -11 -5 -11 -4 -10 -6 -9 -6 -9 -6 -9 -6 -9 -7 -8 -7 -8 -8 -8 -9 -7 -8 -8 -10 -6 -9 -7 -11 -7 -10 -6 -12 -6 -12 -6 -12 -6 -13 -6 0 -33 13 6 13 6 12 6 11 6 11 6 11 7 9 7 10 7 9 7 8 7 8 8 8 8 7 9 6 9 7 9 6 10 5 10 5 10 5 11 5 12 4 12 4 12 4 13 3 14 3 14 3 15 3 16 2 16 3 17 2 17 1 18 2 19 -3 -10 0 33zm0 0l-2 0 -1 -11 3 11zm416 8l0 0 -16 -11 -15 -10 -15 -8 -14 -7 -14 -7 -14 -5 -14 -4 -13 -4 -13 -3 -12 -2 -13 -1 -12 -1 -12 0 -12 1 -12 1 -11 1 -12 2 -12 3 -12 2 -11 3 -12 4 -12 3 -12 4 -13 3 -12 4 -13 4 -13 4 -13 3 -14 4 -14 3 -14 3 -15 3 0 -33 14 -3 15 -3 14 -4 13 -3 14 -4 12 -3 13 -4 13 -4 12 -4 12 -3 12 -4 12 -3 12 -3 12 -3 12 -2 11 -2 12 -1 12 -2 12 0 12 0 13 1 12 1 13 2 13 3 13 3 13 5 14 5 14 7 15 7 15 8 15 10 16 11 0 0 -1 33zm166 713l0 0 12 -24 12 -25 9 -24 9 -25 7 -24 7 -25 4 -24 4 -24 3 -24 1 -23 0 -22 0 -23 -2 -23 -3 -23 -3 -24 -5 -24 -6 -24 -7 -24 -9 -24 -9 -23 -10 -23 -12 -23 -12 -22 -14 -22 -14 -21 -15 -20 -17 -20 -17 -19 -18 -18 -20 -18 -20 -16 -21 -15 1 -33 21 15 21 17 19 17 18 18 18 20 16 19 16 21 15 21 13 22 13 23 12 23 10 24 10 24 8 25 8 26 7 26 5 26 4 28 4 28 2 29 0 29 0 30 -2 29 -3 28 -4 28 -6 27 -6 27 -8 26 -9 26 -10 25 -12 25 -13 25 0 0 -2 -31zm-360 194l3 -22 16 -1 16 0 15 -1 16 -2 14 -1 15 -2 14 -2 14 -2 13 -3 13 -3 13 -3 12 -3 12 -4 12 -4 12 -5 11 -5 11 -5 10 -6 11 -6 10 -6 9 -7 10 -7 9 -7 8 -8 9 -9 8 -8 8 -10 8 -9 7 -10 7 -11 7 -11 7 -11 2 31 -6 11 -7 12 -8 10 -7 11 -8 10 -8 9 -9 9 -8 8 -9 8 -9 8 -10 7 -9 7 -11 6 -10 6 -10 6 -11 5 -12 5 -11 5 -12 4 -12 4 -13 3 -13 4 -13 3 -13 2 -14 2 -14 2 -15 2 -14 2 -15 1 -16 1 -16 1 -16 0 3 -22 -6 11zm0 0l-2 -22 5 0 -3 22zm52 226l0 0 0 -10 1 -9 0 -8 0 -7 -1 -7 0 -7 -1 -6 -1 -7 -2 -6 -1 -6 -2 -7 -2 -6 -2 -6 -2 -6 -3 -5 -2 -6 -2 -6 -3 -5 -3 -6 -2 -6 -3 -6 -2 -6 -3 -6 -2 -7 -3 -6 -2 -8 -2 -7 -2 -8 -2 -9 -1 -10 -1 -10 -1 -11 6 -11 1 7 1 7 1 6 1 7 2 6 1 7 2 6 2 6 3 6 2 6 2 5 3 6 2 6 3 5 3 6 2 6 3 6 2 6 3 6 2 7 2 7 2 8 2 8 2 8 1 9 2 11 1 11 0 11 1 13 0 13 -1 13 -1 14 0 0 -6 -12zm-1041 -63l4 21 -1 58 4 52 10 51 15 47 20 44 25 39 29 35 33 30 36 26 39 22 42 18 44 14 46 10 47 6 48 2 49 -2 49 -4 49 -9 49 -11 47 -15 47 -17 44 -21 43 -24 40 -26 37 -28 34 -32 30 -33 26 -36 22 -37 17 -40 11 -39 6 -38 6 12 -7 50 -13 44 -17 41 -23 39 -26 36 -31 34 -34 31 -37 29 -40 26 -43 24 -45 21 -46 17 -48 15 -48 12 -49 8 -50 5 -49 1 -48 -2 -47 -6 -46 -10 -45 -14 -42 -18 -39 -22 -36 -26 -34 -31 -29 -35 -26 -40 -21 -46 -16 -51 -11 -58 -5 -66 1 -72 4 22 -1 -33zm0 0l5 -3 -1 24 -4 -21zm-428 68l0 0 17 7 17 7 17 5 16 5 15 4 16 3 15 2 14 1 15 1 14 0 14 -1 14 -1 13 -2 13 -3 13 -3 13 -3 13 -4 12 -4 13 -5 12 -5 12 -5 12 -6 12 -6 12 -5 12 -7 11 -6 12 -6 12 -6 12 -7 11 -6 12 -6 12 -6 1 33 -12 6 -12 6 -12 6 -11 7 -12 6 -12 6 -12 7 -12 6 -11 6 -12 5 -12 6 -13 5 -12 5 -12 5 -13 4 -12 4 -13 3 -13 3 -14 3 -13 2 -14 1 -14 1 -14 0 -15 -1 -14 -1 -16 -2 -15 -3 -16 -4 -16 -5 -16 -5 -17 -7 -18 -7 0 0 1 -33zm189 -945l-1 32 -57 2 -53 6 -48 10 -45 14 -41 18 -36 21 -33 24 -30 27 -25 30 -23 32 -18 34 -16 35 -12 36 -9 37 -6 37 -3 36 0 36 2 36 4 38 7 39 10 39 11 38 15 38 16 37 19 35 21 33 23 31 24 29 26 26 28 23 30 19 31 17 -1 33 -31 -17 -30 -19 -28 -24 -26 -26 -25 -29 -23 -31 -21 -34 -19 -36 -17 -37 -15 -39 -13 -41 -10 -41 -8 -44 -5 -44 -2 -46 0 -47 4 -45 7 -43 10 -41 13 -38 16 -37 19 -35 23 -32 26 -30 29 -28 34 -24 37 -21 40 -18 45 -14 49 -11 53 -6 57 -1 -2 32 3 -31zm0 0l15 32 -16 0 1 -32z"/>
   </g>
   <path class="fil32" d="M7260 4632c23,89 47,177 71,266 91,309 104,802 39,1125 -109,544 -608,1140 -1147,1340 -295,108 -838,130 -1053,-17 433,2 765,74 1198,-304 258,-224 524,-480 498,-1018 -21,-440 -277,-795 -537,-977 -319,-223 -788,-305 -1252,-244 -406,52 -765,204 -1075,426 -1884,1349 -1189,3536 -50,5099 1072,1472 2804,2822 4311,3383 420,157 881,265 1351,257 698,-12 1669,-431 2510,-907 2004,-1133 5421,-4369 3827,-7021 -392,-652 -1047,-1132 -1872,-1268 -1808,-299 -2493,1967 -715,2518 283,87 380,52 668,31 -121,70 -379,82 -544,77 -490,-14 -972,-233 -1263,-576 -386,-456 -547,-1235 -360,-1941 16,-49 32,-98 48,-147 62,-187 92,-198 -126,-240 -143,-28 -310,-48 -455,-65 -1257,-149 -2261,-135 -3523,38 -193,26 -385,55 -494,78 -76,16 -75,15 -55,87zm4569 -11l0 0c-9,25 -18,51 -26,77 -16,49 -32,98 -48,147l-1 3 -1 3c-176,665 -72,1509 383,2046 326,385 849,603 1348,618 174,5 455,-6 606,-93l441 -253 -508 36c-108,7 -222,24 -330,24 -104,1 -197,-20 -295,-51 -289,-89 -563,-244 -746,-490 -145,-195 -218,-431 -208,-674 14,-340 184,-656 449,-867 332,-265 756,-329 1167,-261 755,125 1397,559 1791,1214 975,1622 -30,3425 -1135,4679 -408,462 -861,891 -1341,1278 -409,330 -850,644 -1308,903 -146,82 -293,161 -443,238 -344,175 -703,337 -1070,461 -295,99 -630,187 -942,193 -447,8 -891,-94 -1309,-250 -502,-187 -987,-445 -1439,-732 -499,-317 -974,-681 -1414,-1075 -515,-461 -997,-977 -1404,-1536 -157,-215 -302,-438 -434,-669 -441,-771 -781,-1727 -627,-2625 120,-697 516,-1234 1085,-1641 305,-219 649,-357 1022,-406 383,-49 845,-3 1170,224 283,198 471,544 488,888 9,200 -23,388 -126,561 -86,143 -208,255 -332,364 -389,338 -653,276 -1122,275l-380 -2 314 214c269,184 863,139 1159,30 568,-210 1102,-833 1221,-1426 68,-340 57,-847 -41,-1179 -19,-73 -39,-145 -58,-217 144,-29 295,-48 439,-68 591,-81 1181,-133 1777,-139 576,-5 1146,34 1718,102 148,17 299,35 446,63 14,3 40,7 64,13z"/>
   <path class="fil32" d="M9874 4296c-30,-80 -3,-44 -3,-143 -1,-62 -16,-84 -26,-147 56,38 102,243 29,290z"/>
   <path class="fil32" d="M9605 4294c122,-39 186,-72 258,-32 -36,35 -40,-1 -129,29 -26,8 -76,18 -106,26 -24,6 -20,7 -45,4 -12,-4 -17,-9 -6,-16 7,-4 16,-7 28,-11z"/>
  </g>
 </g>
</svg>
